<svg 
 xmlns="http://www.w3.org/2000/svg"
 xmlns:xlink="http://www.w3.org/1999/xlink"
 width="23px" height="23px">
<path fill-rule="evenodd"  fill="rgb(89, 98, 118)"
 d="M11.088,22.712 C5.021,22.712 0.056,17.785 0.056,11.764 C0.056,5.743 5.021,0.817 11.088,0.817 C17.156,0.817 22.121,5.743 22.121,11.764 C22.121,17.785 17.156,22.712 11.088,22.712 ZM11.088,3.006 C6.234,3.006 2.263,6.947 2.263,11.764 C2.263,16.581 6.234,20.522 11.088,20.522 C15.943,20.522 19.914,16.581 19.914,11.764 C19.914,6.947 15.943,3.006 11.088,3.006 ZM12.192,16.143 L9.985,16.143 L9.985,12.859 L6.676,12.859 L6.676,10.669 L9.985,10.669 L9.985,7.385 L12.192,7.385 L12.192,10.669 L15.501,10.669 L15.501,12.859 L12.192,12.859 L12.192,16.143 Z"/>
</svg>