<svg 
 xmlns="http://www.w3.org/2000/svg"
 xmlns:xlink="http://www.w3.org/1999/xlink"
 width="35px" height="35px">
<path fill-rule="evenodd"  fill="rgb(48, 209, 203)"
 d="M34.960,4.923 C34.867,4.644 34.624,4.442 34.332,4.400 L31.058,3.934 L30.590,0.667 C30.548,0.375 30.345,0.133 30.065,0.040 C29.785,-0.053 29.477,0.019 29.269,0.227 L25.561,3.927 C25.388,4.099 25.306,4.344 25.341,4.586 L25.836,8.045 L24.632,9.246 C22.016,6.912 18.565,5.491 14.787,5.491 C6.634,5.491 0.000,12.110 0.000,20.245 C0.000,28.381 6.634,35.000 14.787,35.000 C22.941,35.000 29.575,28.381 29.575,20.245 C29.575,16.437 28.121,12.960 25.738,10.340 L26.937,9.143 L30.404,9.637 C30.441,9.643 30.478,9.645 30.514,9.645 C30.719,9.645 30.918,9.564 31.065,9.418 L34.772,5.718 C34.981,5.510 35.053,5.203 34.960,4.923 ZM28.018,20.245 C28.018,27.525 22.083,33.447 14.787,33.447 C7.492,33.447 1.557,27.525 1.557,20.245 C1.557,12.966 7.492,7.044 14.787,7.044 C18.136,7.044 21.197,8.292 23.530,10.346 L22.152,11.721 C20.174,10.017 17.599,8.985 14.787,8.985 C8.565,8.985 3.502,14.036 3.502,20.245 C3.502,26.454 8.565,31.505 14.787,31.505 C21.010,31.505 26.072,26.454 26.072,20.245 C26.072,17.400 25.009,14.798 23.258,12.814 L24.636,11.439 C26.738,13.777 28.018,16.865 28.018,20.245 ZM14.393,20.562 C14.545,20.713 14.744,20.789 14.943,20.789 C15.142,20.789 15.342,20.713 15.493,20.562 L17.155,18.904 C17.381,19.300 17.512,19.758 17.512,20.245 C17.512,21.744 16.290,22.963 14.787,22.963 C13.286,22.963 12.064,21.744 12.064,20.245 C12.064,18.747 13.286,17.527 14.787,17.527 C15.235,17.527 15.658,17.636 16.031,17.828 L14.393,19.463 C14.089,19.767 14.089,20.258 14.393,20.562 ZM17.166,16.696 C16.485,16.241 15.667,15.974 14.787,15.974 C12.427,15.974 10.507,17.890 10.507,20.245 C10.507,22.600 12.427,24.516 14.787,24.516 C17.148,24.516 19.068,22.600 19.068,20.245 C19.068,19.328 18.775,18.478 18.280,17.781 L19.669,16.396 C20.510,17.455 21.014,18.792 21.014,20.245 C21.014,23.671 18.221,26.458 14.787,26.458 C11.354,26.458 8.561,23.671 8.561,20.245 C8.561,16.820 11.354,14.033 14.787,14.033 C16.204,14.033 17.511,14.508 18.559,15.306 L17.166,16.696 ZM19.667,14.201 C18.331,13.125 16.634,12.480 14.787,12.480 C10.496,12.480 7.005,15.963 7.005,20.245 C7.005,24.527 10.496,28.011 14.787,28.011 C19.079,28.011 22.570,24.527 22.570,20.245 C22.570,18.364 21.896,16.636 20.776,15.291 L22.156,13.914 C23.626,15.615 24.516,17.828 24.516,20.245 C24.516,25.598 20.152,29.952 14.787,29.952 C9.423,29.952 5.059,25.598 5.059,20.245 C5.059,14.893 9.423,10.538 14.787,10.538 C17.170,10.538 19.355,11.398 21.049,12.822 L19.667,14.201 ZM30.239,8.045 L27.350,7.633 L26.937,4.750 L29.269,2.424 L29.599,4.730 C29.648,5.071 29.917,5.340 30.260,5.389 L32.571,5.718 L30.239,8.045 Z"/>
</svg>