<svg 
 xmlns="http://www.w3.org/2000/svg"
 xmlns:xlink="http://www.w3.org/1999/xlink"
 width="21px" height="30px">
<path fill-rule="evenodd"  fill="rgb(48, 209, 203)"
 d="M19.946,16.058 C20.537,16.058 21.000,16.523 21.000,17.117 L21.000,28.941 C21.000,29.535 20.537,30.000 19.946,30.000 L1.054,30.000 C0.463,30.000 -0.000,29.535 -0.000,28.941 L-0.000,17.117 L-0.000,10.430 C-0.000,4.699 4.627,-0.000 10.359,-0.000 C16.091,-0.000 20.743,4.673 20.743,10.430 C20.743,11.024 20.280,11.489 19.689,11.489 C19.098,11.489 18.635,11.024 18.635,10.430 C18.635,5.835 14.934,2.117 10.359,2.117 C5.809,2.117 2.082,5.861 2.082,10.430 L2.082,16.058 L19.946,16.058 ZM2.082,27.883 L18.892,27.883 L18.892,18.175 L2.082,18.175 L2.082,27.883 ZM10.513,24.733 C9.576,24.733 8.816,23.970 8.816,23.029 C8.816,22.088 9.576,21.325 10.513,21.325 C11.450,21.325 12.209,22.088 12.209,23.029 C12.209,23.970 11.450,24.733 10.513,24.733 Z"/>
</svg>