<svg 
 xmlns="http://www.w3.org/2000/svg"
 xmlns:xlink="http://www.w3.org/1999/xlink"
 width="22px" height="24px">
<path fill-rule="evenodd"  fill="rgb(42, 62, 126)"
 d="M21.607,24.000 L0.393,24.000 C0.176,24.000 -0.000,23.821 -0.000,23.600 L-0.000,6.400 L-0.000,2.000 C-0.000,1.779 0.176,1.600 0.393,1.600 L3.143,1.600 L3.143,0.400 C3.143,0.179 3.318,-0.000 3.536,-0.000 L6.286,-0.000 C6.503,-0.000 6.679,0.179 6.679,0.400 L6.679,1.600 L15.321,1.600 L15.321,0.400 C15.321,0.179 15.497,-0.000 15.714,-0.000 L18.464,-0.000 C18.681,-0.000 18.857,0.179 18.857,0.400 L18.857,1.600 L21.607,1.600 C21.824,1.600 22.000,1.779 22.000,2.000 L22.000,6.400 L22.000,23.600 C22.000,23.821 21.824,24.000 21.607,24.000 ZM5.893,2.000 L5.893,0.800 L3.929,0.800 L3.929,2.000 L3.929,3.200 L5.893,3.200 L5.893,2.000 ZM18.071,2.000 L18.071,0.800 L16.107,0.800 L16.107,2.000 L16.107,3.200 L18.071,3.200 L18.071,2.000 ZM21.214,2.400 L18.857,2.400 L18.857,3.600 C18.857,3.821 18.681,4.000 18.464,4.000 L15.714,4.000 C15.497,4.000 15.321,3.821 15.321,3.600 L15.321,2.400 L6.679,2.400 L6.679,3.600 C6.679,3.821 6.503,4.000 6.286,4.000 L3.536,4.000 C3.318,4.000 3.143,3.821 3.143,3.600 L3.143,2.400 L0.786,2.400 L0.786,6.000 L21.214,6.000 L21.214,2.400 ZM21.214,6.800 L0.786,6.800 L0.786,23.200 L21.214,23.200 L21.214,6.800 ZM7.857,9.200 L10.607,9.200 L11.393,9.200 L14.143,9.200 L14.928,9.200 L18.464,9.200 L18.464,12.800 L18.464,13.600 L18.464,16.400 L18.464,17.200 L18.464,20.800 L14.928,20.800 L14.143,20.800 L11.393,20.800 L10.607,20.800 L7.857,20.800 L7.071,20.800 L3.536,20.800 L3.536,17.200 L3.536,16.400 L3.536,13.600 L3.536,12.800 L3.536,9.200 L7.071,9.200 L7.857,9.200 ZM14.928,20.000 L17.678,20.000 L17.678,17.200 L14.928,17.200 L14.928,20.000 ZM14.928,16.400 L17.678,16.400 L17.678,13.600 L14.928,13.600 L14.928,16.400 ZM14.928,12.800 L17.678,12.800 L17.678,10.000 L14.928,10.000 L14.928,12.800 ZM11.393,20.000 L14.143,20.000 L14.143,17.200 L11.393,17.200 L11.393,20.000 ZM11.393,16.400 L14.143,16.400 L14.143,13.600 L11.393,13.600 L11.393,16.400 ZM11.393,12.800 L14.143,12.800 L14.143,10.000 L11.393,10.000 L11.393,12.800 ZM7.857,20.000 L10.607,20.000 L10.607,17.200 L7.857,17.200 L7.857,20.000 ZM7.857,16.400 L10.607,16.400 L10.607,13.600 L7.857,13.600 L7.857,16.400 ZM7.857,12.800 L10.607,12.800 L10.607,10.000 L7.857,10.000 L7.857,12.800 ZM4.321,20.000 L7.071,20.000 L7.071,17.200 L4.321,17.200 L4.321,20.000 ZM4.321,16.400 L7.071,16.400 L7.071,13.600 L4.321,13.600 L4.321,16.400 ZM4.321,12.800 L7.071,12.800 L7.071,10.000 L4.321,10.000 L4.321,12.800 Z"/>
</svg>