<svg 
 xmlns="http://www.w3.org/2000/svg"
 xmlns:xlink="http://www.w3.org/1999/xlink"
 width="27px" height="27px">
<path fill-rule="evenodd"  fill="rgb(42, 62, 126)"
 d="M14.568,11.733 L20.824,6.166 L15.298,12.491 C15.466,12.791 15.570,13.132 15.570,13.500 C15.570,14.644 14.643,15.570 13.499,15.570 C12.355,15.570 11.428,14.644 11.428,13.500 C11.428,12.356 12.355,11.429 13.499,11.429 C13.893,11.429 14.255,11.544 14.568,11.733 ZM27.000,13.500 C27.000,20.943 20.943,27.000 13.500,27.000 C6.056,27.000 -0.000,20.943 -0.000,13.500 C-0.000,6.056 6.056,-0.000 13.500,-0.000 C20.943,-0.000 27.000,6.056 27.000,13.500 ZM24.044,18.078 L22.348,17.389 L22.546,16.898 L24.236,17.587 C24.662,16.473 24.916,15.277 24.973,14.029 L23.160,14.029 L23.160,12.971 L24.973,12.971 C24.913,11.674 24.644,10.434 24.187,9.283 L22.503,9.992 L22.298,9.505 L23.982,8.796 C22.809,6.191 20.699,4.098 18.077,2.955 L17.387,4.652 L16.898,4.453 L17.587,2.763 C16.475,2.337 15.275,2.083 14.027,2.026 L14.027,3.839 L12.972,3.839 L12.972,2.026 C11.675,2.085 10.435,2.355 9.284,2.811 L9.993,4.495 L9.506,4.700 L8.797,3.016 C7.678,3.520 6.658,4.199 5.763,5.016 L7.043,6.296 L6.296,7.043 L5.016,5.763 C4.168,6.692 3.465,7.754 2.955,8.922 L4.652,9.612 L4.453,10.101 L2.763,9.413 C2.337,10.527 2.083,11.723 2.026,12.971 L3.839,12.971 L3.839,14.027 L2.026,14.027 C2.085,15.325 2.355,16.564 2.811,17.716 L4.495,17.007 L4.700,17.494 L3.016,18.203 C3.520,19.322 4.199,20.342 5.016,21.236 L6.296,19.957 L7.043,20.704 L5.763,21.982 C7.808,23.850 10.519,25.001 13.500,25.001 C16.480,25.001 19.189,23.853 21.236,21.982 L19.957,20.704 L20.704,19.957 L21.982,21.236 C22.832,20.309 23.535,19.246 24.044,18.078 ZM9.686,20.707 L17.314,20.707 L17.314,19.207 L9.686,19.207 L9.686,20.707 Z"/>
</svg>