<svg 
 xmlns="http://www.w3.org/2000/svg"
 xmlns:xlink="http://www.w3.org/1999/xlink"
 width="26px" height="28px">
<path fill-rule="evenodd"  fill="rgb(46, 68, 139)"
 d="M25.518,28.000 L0.481,28.000 C0.216,28.000 -0.000,27.789 -0.000,27.528 C-0.000,27.267 0.215,27.056 0.481,27.056 L1.284,27.056 L1.284,9.281 C1.284,9.020 1.500,8.809 1.765,8.809 L5.778,8.809 L5.778,4.876 C5.778,4.616 5.993,4.404 6.259,4.404 L7.704,4.404 L7.704,2.360 C7.704,2.099 7.919,1.888 8.185,1.888 L10.272,1.888 L10.272,0.472 C10.272,0.211 10.487,-0.000 10.753,-0.000 C11.019,-0.000 11.235,0.211 11.235,0.472 L11.235,1.888 L13.321,1.888 C13.587,1.888 13.802,2.099 13.802,2.360 L13.802,4.404 L14.765,4.404 L14.765,2.360 C14.765,2.099 14.981,1.888 15.247,1.888 L24.235,1.888 C24.500,1.888 24.716,2.099 24.716,2.360 L24.716,27.056 L25.518,27.056 C25.784,27.056 26.000,27.267 26.000,27.528 C26.000,27.789 25.784,28.000 25.518,28.000 ZM5.457,27.056 L5.778,27.056 L5.778,26.270 C5.778,26.009 5.993,25.798 6.259,25.798 C6.525,25.798 6.741,26.009 6.741,26.270 L6.741,27.056 L7.062,27.056 L7.062,25.483 L5.457,25.483 L5.457,27.056 ZM2.247,9.753 L2.247,27.056 L4.494,27.056 L4.494,25.011 C4.494,24.751 4.709,24.539 4.975,24.539 L7.543,24.539 C7.809,24.539 8.025,24.751 8.025,25.011 L8.025,27.056 L10.272,27.056 L10.272,15.756 L10.272,14.944 L10.272,9.753 L2.247,9.753 ZM12.839,2.831 L8.667,2.831 L8.667,4.404 L12.839,4.404 L12.839,2.831 ZM14.765,5.348 L6.741,5.348 L6.741,8.809 L10.753,8.809 C11.019,8.809 11.235,9.020 11.235,9.281 L11.235,9.438 L12.679,9.438 C12.945,9.438 13.160,9.649 13.160,9.910 C13.160,10.171 12.945,10.382 12.679,10.382 L11.235,10.382 L11.235,11.955 L12.679,11.955 C12.945,11.955 13.160,12.166 13.160,12.427 C13.160,12.688 12.945,12.899 12.679,12.899 L11.235,12.899 L11.235,14.472 L14.765,14.472 L14.765,5.348 ZM11.235,15.416 L11.235,15.756 L11.235,27.056 L19.259,27.056 L19.259,15.416 L11.235,15.416 ZM23.753,2.831 L15.728,2.831 L15.728,4.876 L15.728,14.472 L17.333,14.472 L17.333,14.314 C17.333,14.054 17.549,13.843 17.815,13.843 C18.081,13.843 18.296,14.054 18.296,14.314 L18.296,14.472 L19.259,14.472 L19.259,14.314 C19.259,14.054 19.475,13.843 19.741,13.843 C20.007,13.843 20.222,14.054 20.222,14.314 L20.222,14.944 L20.222,27.056 L23.753,27.056 L23.753,27.056 L23.753,2.831 ZM21.667,24.854 C21.401,24.854 21.185,24.643 21.185,24.382 L21.185,23.753 C21.185,23.492 21.401,23.281 21.667,23.281 C21.932,23.281 22.148,23.492 22.148,23.753 L22.148,24.382 C22.148,24.643 21.933,24.854 21.667,24.854 ZM21.667,21.708 C21.401,21.708 21.185,21.497 21.185,21.236 L21.185,20.607 C21.185,20.346 21.401,20.135 21.667,20.135 C21.932,20.135 22.148,20.346 22.148,20.607 L22.148,21.236 C22.148,21.497 21.933,21.708 21.667,21.708 ZM21.667,18.562 C21.401,18.562 21.185,18.350 21.185,18.090 L21.185,17.461 C21.185,17.200 21.401,16.989 21.667,16.989 C21.932,16.989 22.148,17.200 22.148,17.461 L22.148,18.090 C22.148,18.351 21.933,18.562 21.667,18.562 ZM21.667,15.416 C21.401,15.416 21.185,15.204 21.185,14.944 L21.185,14.315 C21.185,14.054 21.401,13.843 21.667,13.843 C21.932,13.843 22.148,14.054 22.148,14.315 L22.148,14.944 C22.148,15.205 21.933,15.416 21.667,15.416 ZM21.667,12.270 C21.401,12.270 21.185,12.058 21.185,11.798 L21.185,11.168 C21.185,10.908 21.401,10.697 21.667,10.697 C21.932,10.697 22.148,10.908 22.148,11.168 L22.148,11.798 C22.148,12.058 21.933,12.270 21.667,12.270 ZM21.667,9.124 C21.401,9.124 21.185,8.912 21.185,8.652 L21.185,8.022 C21.185,7.762 21.401,7.550 21.667,7.550 C21.932,7.550 22.148,7.762 22.148,8.022 L22.148,8.652 C22.148,8.912 21.933,9.124 21.667,9.124 ZM21.667,5.977 C21.401,5.977 21.185,5.766 21.185,5.506 L21.185,4.876 C21.185,4.616 21.401,4.405 21.667,4.405 C21.932,4.405 22.148,4.616 22.148,4.876 L22.148,5.506 C22.148,5.766 21.933,5.977 21.667,5.977 ZM19.741,12.270 C19.475,12.270 19.259,12.058 19.259,11.798 L19.259,11.168 C19.259,10.908 19.475,10.697 19.741,10.697 C20.007,10.697 20.222,10.908 20.222,11.168 L20.222,11.798 C20.222,12.058 20.007,12.270 19.741,12.270 ZM19.741,9.124 C19.475,9.124 19.259,8.912 19.259,8.652 L19.259,8.022 C19.259,7.762 19.475,7.550 19.741,7.550 C20.007,7.550 20.222,7.762 20.222,8.022 L20.222,8.652 C20.222,8.912 20.007,9.124 19.741,9.124 ZM19.741,5.977 C19.475,5.977 19.259,5.766 19.259,5.506 L19.259,4.876 C19.259,4.616 19.475,4.405 19.741,4.405 C20.007,4.405 20.222,4.616 20.222,4.876 L20.222,5.506 C20.222,5.766 20.007,5.977 19.741,5.977 ZM17.815,12.270 C17.549,12.270 17.333,12.058 17.333,11.798 L17.333,11.168 C17.333,10.908 17.549,10.697 17.815,10.697 C18.081,10.697 18.296,10.908 18.296,11.168 L18.296,11.798 C18.296,12.058 18.081,12.270 17.815,12.270 ZM17.815,9.124 C17.549,9.124 17.333,8.912 17.333,8.652 L17.333,8.022 C17.333,7.762 17.549,7.550 17.815,7.550 C18.081,7.550 18.296,7.762 18.296,8.022 L18.296,8.652 C18.296,8.912 18.081,9.124 17.815,9.124 ZM17.815,5.977 C17.549,5.977 17.333,5.766 17.333,5.506 L17.333,4.876 C17.333,4.616 17.549,4.405 17.815,4.405 C18.081,4.405 18.296,4.616 18.296,4.876 L18.296,5.506 C18.296,5.766 18.081,5.977 17.815,5.977 ZM17.173,26.112 C16.907,26.112 16.691,25.901 16.691,25.641 L16.691,16.832 C16.691,16.571 16.907,16.360 17.173,16.360 C17.439,16.360 17.654,16.571 17.654,16.832 L17.654,25.641 C17.654,25.901 17.439,26.112 17.173,26.112 ZM15.247,26.112 C14.981,26.112 14.765,25.901 14.765,25.641 L14.765,16.832 C14.765,16.571 14.981,16.360 15.247,16.360 C15.513,16.360 15.728,16.571 15.728,16.832 L15.728,25.641 C15.728,25.901 15.513,26.112 15.247,26.112 ZM13.321,26.112 C13.055,26.112 12.839,25.901 12.839,25.641 L12.839,16.832 C12.839,16.571 13.055,16.360 13.321,16.360 C13.587,16.360 13.802,16.571 13.802,16.832 L13.802,25.641 C13.802,25.901 13.587,26.112 13.321,26.112 ZM12.679,7.865 L8.827,7.865 C8.561,7.865 8.346,7.654 8.346,7.393 C8.346,7.132 8.561,6.921 8.827,6.921 L12.679,6.921 C12.945,6.921 13.160,7.132 13.160,7.393 C13.160,7.654 12.945,7.865 12.679,7.865 ZM8.185,22.966 C7.919,22.966 7.704,22.755 7.704,22.494 L7.704,21.865 C7.704,21.604 7.919,21.393 8.185,21.393 C8.451,21.393 8.667,21.604 8.667,21.865 L8.667,22.494 C8.667,22.755 8.451,22.966 8.185,22.966 ZM8.185,19.820 C7.919,19.820 7.704,19.609 7.704,19.348 L7.704,18.719 C7.704,18.458 7.919,18.247 8.185,18.247 C8.451,18.247 8.667,18.458 8.667,18.719 L8.667,19.348 C8.667,19.609 8.451,19.820 8.185,19.820 ZM8.185,16.674 C7.919,16.674 7.704,16.463 7.704,16.202 L7.704,15.573 C7.704,15.312 7.919,15.101 8.185,15.101 C8.451,15.101 8.667,15.312 8.667,15.573 L8.667,16.202 C8.667,16.463 8.451,16.674 8.185,16.674 ZM8.185,13.528 C7.919,13.528 7.704,13.317 7.704,13.056 L7.704,12.427 C7.704,12.166 7.919,11.955 8.185,11.955 C8.451,11.955 8.667,12.166 8.667,12.427 L8.667,13.056 C8.667,13.317 8.451,13.528 8.185,13.528 ZM6.259,22.966 C5.993,22.966 5.778,22.755 5.778,22.494 L5.778,21.865 C5.778,21.604 5.993,21.393 6.259,21.393 C6.525,21.393 6.741,21.604 6.741,21.865 L6.741,22.494 C6.741,22.755 6.525,22.966 6.259,22.966 ZM6.259,19.820 C5.993,19.820 5.778,19.609 5.778,19.348 L5.778,18.719 C5.778,18.458 5.993,18.247 6.259,18.247 C6.525,18.247 6.741,18.458 6.741,18.719 L6.741,19.348 C6.741,19.609 6.525,19.820 6.259,19.820 ZM6.259,16.674 C5.993,16.674 5.778,16.463 5.778,16.202 L5.778,15.573 C5.778,15.312 5.993,15.101 6.259,15.101 C6.525,15.101 6.741,15.312 6.741,15.573 L6.741,16.202 C6.741,16.463 6.525,16.674 6.259,16.674 ZM6.259,13.528 C5.993,13.528 5.778,13.317 5.778,13.056 L5.778,12.427 C5.778,12.166 5.993,11.955 6.259,11.955 C6.525,11.955 6.741,12.166 6.741,12.427 L6.741,13.056 C6.741,13.317 6.525,13.528 6.259,13.528 ZM4.333,22.966 C4.067,22.966 3.852,22.755 3.852,22.494 L3.852,21.865 C3.852,21.604 4.067,21.393 4.333,21.393 C4.599,21.393 4.815,21.604 4.815,21.865 L4.815,22.494 C4.815,22.755 4.599,22.966 4.333,22.966 ZM4.333,19.820 C4.067,19.820 3.852,19.609 3.852,19.348 L3.852,18.719 C3.852,18.458 4.067,18.247 4.333,18.247 C4.599,18.247 4.815,18.458 4.815,18.719 L4.815,19.348 C4.815,19.609 4.599,19.820 4.333,19.820 ZM4.333,16.674 C4.067,16.674 3.852,16.463 3.852,16.202 L3.852,15.573 C3.852,15.312 4.067,15.101 4.333,15.101 C4.599,15.101 4.815,15.312 4.815,15.573 L4.815,16.202 C4.815,16.463 4.599,16.674 4.333,16.674 ZM4.333,13.528 C4.067,13.528 3.852,13.317 3.852,13.056 L3.852,12.427 C3.852,12.166 4.067,11.955 4.333,11.955 C4.599,11.955 4.815,12.166 4.815,12.427 L4.815,13.056 C4.815,13.317 4.599,13.528 4.333,13.528 Z"/>
</svg>