<svg 
 xmlns="http://www.w3.org/2000/svg"
 xmlns:xlink="http://www.w3.org/1999/xlink"
 width="19px" height="24px">
<path fill-rule="evenodd"  fill="rgb(46, 68, 139)"
 d="M1.979,24.000 L1.979,22.000 L0.000,22.000 L0.000,-0.000 L17.021,-0.000 L17.021,5.834 L19.000,7.834 L19.000,24.000 L1.979,24.000 ZM16.229,0.800 L0.792,0.800 L0.792,21.200 L1.979,21.200 L1.979,2.000 L13.226,2.000 L16.229,5.034 L16.229,0.800 ZM17.021,6.966 L13.458,3.366 L13.458,7.600 L17.649,7.600 L17.021,6.966 ZM18.208,8.400 L12.667,8.400 L12.667,2.800 L2.771,2.800 L2.771,22.000 L2.771,23.200 L18.208,23.200 L18.208,8.400 ZM5.542,6.800 L9.500,6.800 C9.718,6.800 9.896,6.979 9.896,7.200 C9.896,7.421 9.718,7.600 9.500,7.600 L5.542,7.600 C5.323,7.600 5.146,7.421 5.146,7.200 C5.146,6.979 5.323,6.800 5.542,6.800 ZM5.542,10.000 L15.437,10.000 C15.656,10.000 15.833,10.179 15.833,10.400 C15.833,10.621 15.656,10.800 15.437,10.800 L5.542,10.800 C5.323,10.800 5.146,10.621 5.146,10.400 C5.146,10.179 5.323,10.000 5.542,10.000 ZM5.542,13.200 L15.437,13.200 C15.656,13.200 15.833,13.379 15.833,13.600 C15.833,13.821 15.656,14.000 15.437,14.000 L5.542,14.000 C5.323,14.000 5.146,13.821 5.146,13.600 C5.146,13.379 5.323,13.200 5.542,13.200 ZM5.542,16.400 L15.437,16.400 C15.656,16.400 15.833,16.579 15.833,16.800 C15.833,17.021 15.656,17.200 15.437,17.200 L5.542,17.200 C5.323,17.200 5.146,17.021 5.146,16.800 C5.146,16.579 5.323,16.400 5.542,16.400 ZM5.542,19.600 L15.437,19.600 C15.656,19.600 15.833,19.779 15.833,20.000 C15.833,20.221 15.656,20.400 15.437,20.400 L5.542,20.400 C5.323,20.400 5.146,20.221 5.146,20.000 C5.146,19.779 5.323,19.600 5.542,19.600 Z"/>
</svg>