<svg 
 xmlns="http://www.w3.org/2000/svg"
 xmlns:xlink="http://www.w3.org/1999/xlink"
 width="25px" height="25px">
<path fill-rule="evenodd"  fill="rgb(39, 195, 185)"
 d="M24.623,9.683 L23.190,11.077 L19.196,7.193 L20.629,5.799 C21.081,5.360 21.760,5.306 22.143,5.678 L24.748,8.211 C25.131,8.583 25.075,9.244 24.623,9.683 ZM18.530,7.840 L22.524,11.724 L13.000,20.986 C12.956,21.028 12.835,21.146 12.665,21.188 C12.646,21.197 12.625,21.205 12.605,21.211 L7.635,22.752 C7.496,22.795 7.356,22.767 7.265,22.679 C7.174,22.590 7.146,22.454 7.190,22.319 L8.774,17.486 C8.781,17.467 8.789,17.447 8.798,17.429 C8.841,17.263 8.962,17.145 9.006,17.102 L10.796,15.362 L4.751,15.362 C4.508,15.362 4.310,15.170 4.310,14.932 C4.310,14.695 4.508,14.503 4.751,14.503 L11.679,14.503 L18.530,7.840 ZM11.772,20.687 L9.313,18.297 L8.654,20.310 L9.701,21.329 L11.772,20.687 ZM18.376,9.384 C18.235,9.246 18.006,9.246 17.865,9.384 L10.440,16.604 C10.299,16.741 10.299,16.964 10.440,17.102 C10.581,17.239 10.811,17.239 10.952,17.102 L18.376,9.882 C18.518,9.744 18.518,9.521 18.376,9.384 ZM17.928,23.129 C17.928,23.387 17.712,23.597 17.447,23.597 L8.686,23.597 L7.895,23.842 C7.736,23.891 7.573,23.917 7.409,23.917 C7.061,23.917 6.737,23.800 6.472,23.597 L1.925,23.597 C1.659,23.597 1.443,23.387 1.443,23.129 L1.443,3.470 C1.443,3.212 1.659,3.002 1.925,3.002 L3.729,3.002 L3.729,3.743 C3.729,4.001 3.945,4.211 4.211,4.211 C4.477,4.211 4.692,4.001 4.692,3.743 L4.692,3.002 L7.460,3.002 L7.460,3.743 C7.460,4.001 7.675,4.211 7.941,4.211 C8.207,4.211 8.423,4.001 8.423,3.743 L8.423,3.002 L10.829,3.002 L10.829,3.743 C10.829,4.001 11.044,4.211 11.311,4.211 C11.577,4.211 11.792,4.001 11.792,3.743 L11.792,3.002 L14.439,3.002 L14.439,3.743 C14.439,4.001 14.655,4.211 14.920,4.211 C15.186,4.211 15.402,4.001 15.402,3.743 L15.402,3.002 L17.448,3.002 C17.713,3.002 17.929,3.212 17.929,3.470 L17.929,6.712 L18.433,6.222 L19.373,5.308 L19.373,3.470 C19.373,2.438 18.509,1.598 17.448,1.598 L15.402,1.598 L15.402,0.467 C15.402,0.208 15.187,-0.001 14.920,-0.001 C14.655,-0.001 14.439,0.208 14.439,0.467 L14.439,1.598 L11.791,1.598 L11.791,0.467 C11.791,0.208 11.576,-0.001 11.310,-0.001 C11.044,-0.001 10.829,0.208 10.829,0.467 L10.829,1.598 L8.422,1.598 L8.422,0.467 C8.422,0.208 8.207,-0.001 7.941,-0.001 C7.675,-0.001 7.459,0.208 7.459,0.467 L7.459,1.598 L4.692,1.598 L4.692,0.467 C4.692,0.208 4.476,-0.001 4.210,-0.001 C3.944,-0.001 3.729,0.208 3.729,0.467 L3.729,1.598 L1.924,1.598 C0.863,1.598 -0.001,2.438 -0.001,3.470 L-0.001,23.128 C-0.001,24.161 0.863,25.001 1.924,25.001 L17.446,25.001 C18.508,25.001 19.372,24.161 19.372,23.128 L19.372,16.313 L17.928,17.718 L17.928,23.129 L17.928,23.129 ZM14.168,7.206 L4.751,7.206 C4.508,7.206 4.310,7.398 4.310,7.635 C4.310,7.872 4.508,8.064 4.751,8.064 L14.168,8.064 C14.412,8.064 14.609,7.872 14.609,7.635 C14.609,7.398 14.412,7.206 14.168,7.206 ZM14.168,10.667 L4.751,10.667 C4.508,10.667 4.310,10.859 4.310,11.096 C4.310,11.333 4.508,11.525 4.751,11.525 L14.168,11.525 C14.412,11.525 14.609,11.333 14.609,11.096 C14.609,10.859 14.412,10.667 14.168,10.667 Z"/>
</svg>