<svg 
 xmlns="http://www.w3.org/2000/svg"
 xmlns:xlink="http://www.w3.org/1999/xlink"
 width="18px" height="18px">
<path fill-rule="evenodd"  fill="rgb(144, 152, 177)"
 d="M16.200,-0.000 L1.800,-0.000 C0.810,-0.000 -0.000,0.810 -0.000,1.800 L-0.000,16.200 C-0.000,17.190 0.810,18.000 1.800,18.000 L16.200,18.000 C17.190,18.000 18.000,17.190 18.000,16.200 L18.000,1.800 C18.000,0.810 17.190,-0.000 16.200,-0.000 ZM15.300,1.800 L15.300,4.500 L13.500,4.500 C12.960,4.500 12.600,4.860 12.600,5.400 L12.600,7.200 L15.300,7.200 L15.300,9.900 L12.600,9.900 L12.600,16.200 L9.900,16.200 L9.900,9.900 L8.100,9.900 L8.100,7.200 L9.900,7.200 L9.900,4.950 C9.900,3.240 11.340,1.800 13.050,1.800 L15.300,1.800 Z"/>
</svg>