<svg 
 xmlns="http://www.w3.org/2000/svg"
 xmlns:xlink="http://www.w3.org/1999/xlink"
 width="25px" height="25px">
<path fill-rule="evenodd"  fill="rgb(255, 255, 255)"
 d="M22.500,0.000 L2.500,0.000 C1.125,0.000 -0.000,1.125 -0.000,2.500 L-0.000,22.500 C-0.000,23.875 1.125,25.000 2.500,25.000 L22.500,25.000 C23.875,25.000 25.000,23.875 25.000,22.500 L25.000,2.500 C25.000,1.125 23.875,0.000 22.500,0.000 ZM21.250,2.500 L21.250,6.250 L18.750,6.250 C18.000,6.250 17.500,6.750 17.500,7.500 L17.500,10.000 L21.250,10.000 L21.250,13.750 L17.500,13.750 L17.500,22.500 L13.750,22.500 L13.750,13.750 L11.250,13.750 L11.250,10.000 L13.750,10.000 L13.750,6.875 C13.750,4.500 15.750,2.500 18.125,2.500 L21.250,2.500 Z"/>
</svg>