<svg 
 xmlns="http://www.w3.org/2000/svg"
 xmlns:xlink="http://www.w3.org/1999/xlink"
 width="26px" height="26px">
<path fill-rule="evenodd"  fill="rgb(214, 45, 32)"
 d="M11.888,8.966 C11.888,7.667 11.114,5.068 9.178,5.068 C8.403,5.068 7.500,5.588 7.500,7.277 C7.500,8.836 8.274,11.046 10.081,11.046 C10.081,11.046 11.888,10.916 11.888,8.966 ZM11.114,15.334 C10.985,15.334 10.856,15.334 10.727,15.334 L10.727,15.334 C10.340,15.334 9.178,15.464 8.403,15.724 C7.500,15.984 6.468,16.634 6.468,17.933 C6.468,19.363 7.758,20.793 10.340,20.793 C12.275,20.793 13.437,19.493 13.437,18.193 C13.437,17.284 12.792,16.634 11.114,15.334 ZM23.246,-0.001 L2.596,-0.001 C1.176,-0.001 0.014,1.169 0.014,2.599 L0.014,23.392 C0.014,24.821 1.176,25.991 2.596,25.991 L23.246,25.991 C24.666,25.991 25.827,24.821 25.827,23.392 L25.827,2.599 C25.827,1.169 24.666,-0.001 23.246,-0.001 ZM9.178,22.352 C5.564,22.352 3.886,20.273 3.886,18.453 C3.886,17.803 4.015,16.374 5.822,15.334 C6.855,14.685 8.145,14.295 9.823,14.165 C9.565,13.905 9.436,13.515 9.436,12.865 C9.436,12.606 9.436,12.475 9.565,12.216 L9.049,12.216 C6.468,12.216 4.919,10.266 4.919,8.317 C4.919,6.108 6.596,3.639 10.210,3.639 L15.631,3.639 L15.244,4.028 L14.340,4.938 L14.212,5.068 L13.308,5.068 C13.824,5.588 14.470,6.497 14.470,7.927 C14.470,9.746 13.566,10.656 12.405,11.436 C12.146,11.566 11.888,11.956 11.888,12.346 C11.888,12.735 12.146,12.995 12.405,13.125 C12.534,13.255 12.792,13.385 13.050,13.515 C14.082,14.295 15.502,15.204 15.502,17.284 C15.502,19.623 13.824,22.352 9.178,22.352 ZM21.955,12.995 L19.374,12.995 L19.374,15.594 L18.083,15.594 L18.083,12.995 L15.502,12.995 L15.502,11.696 L18.083,11.696 L18.083,9.096 L19.374,9.096 L19.374,11.696 L21.955,11.696 L21.955,12.995 Z"/>
</svg>