<svg 
 xmlns="http://www.w3.org/2000/svg"
 xmlns:xlink="http://www.w3.org/1999/xlink"
 width="18px" height="18px">
<path fill-rule="evenodd"  fill="rgb(183, 194, 231)"
 d="M12.857,11.314 L12.034,11.314 L11.726,11.006 C12.754,9.874 13.371,8.331 13.371,6.686 C13.371,2.983 10.389,-0.000 6.686,-0.000 C2.983,-0.000 0.000,2.983 0.000,6.686 C0.000,10.388 2.983,13.372 6.686,13.372 C8.331,13.372 9.874,12.754 11.006,11.726 L11.314,12.034 L11.314,12.857 L16.457,18.000 L18.000,16.457 L12.857,11.314 ZM6.686,11.314 C4.114,11.314 2.057,9.257 2.057,6.686 C2.057,4.114 4.114,2.057 6.686,2.057 C9.257,2.057 11.314,4.114 11.314,6.686 C11.314,9.257 9.257,11.314 6.686,11.314 Z"/>
</svg>