<svg 
 xmlns="http://www.w3.org/2000/svg"
 xmlns:xlink="http://www.w3.org/1999/xlink"
 width="11px" height="11px">
<path fill-rule="evenodd"  fill="rgb(153, 153, 153)"
 d="M6.711,5.500 L10.824,1.387 C10.937,1.274 11.000,1.123 11.000,0.961 C11.000,0.800 10.938,0.649 10.824,0.536 L10.464,0.176 C10.351,0.062 10.199,0.000 10.038,0.000 C9.877,0.000 9.726,0.062 9.613,0.176 L5.500,4.289 L1.387,0.176 C1.274,0.062 1.123,0.000 0.962,0.000 C0.801,0.000 0.650,0.062 0.537,0.176 L0.176,0.536 C-0.059,0.771 -0.059,1.152 0.176,1.387 L4.289,5.500 L0.176,9.613 C0.063,9.726 0.000,9.877 0.000,10.039 C0.000,10.200 0.063,10.351 0.176,10.464 L0.537,10.824 C0.650,10.938 0.801,11.000 0.962,11.000 C1.123,11.000 1.274,10.938 1.387,10.824 L5.500,6.711 L9.613,10.824 C9.726,10.938 9.877,11.000 10.038,11.000 L10.038,11.000 C10.199,11.000 10.350,10.938 10.464,10.824 L10.824,10.464 C10.937,10.351 11.000,10.200 11.000,10.039 C11.000,9.877 10.937,9.726 10.824,9.613 L6.711,5.500 Z"/>
</svg>