<svg 
 xmlns="http://www.w3.org/2000/svg"
 xmlns:xlink="http://www.w3.org/1999/xlink"
 width="33px" height="33px">
<path fill-rule="evenodd"  fill="rgb(204, 211, 226)"
 d="M16.492,32.989 C7.416,32.989 -0.009,25.568 -0.009,16.498 C-0.009,7.428 7.416,0.006 16.492,0.006 C25.568,0.006 32.993,7.428 32.993,16.498 C32.993,25.568 25.568,32.989 16.492,32.989 ZM16.492,3.305 C9.231,3.305 3.291,9.241 3.291,16.498 C3.291,23.754 9.231,29.691 16.492,29.691 C23.753,29.691 29.693,23.754 29.693,16.498 C29.693,9.241 23.753,3.305 16.492,3.305 ZM18.142,23.094 L14.842,23.094 L14.842,18.147 L9.892,18.147 L9.892,14.849 L14.842,14.849 L14.842,9.901 L18.142,9.901 L18.142,14.849 L23.093,14.849 L23.093,18.147 L18.142,18.147 L18.142,23.094 Z"/>
</svg>