<svg 
 xmlns="http://www.w3.org/2000/svg"
 xmlns:xlink="http://www.w3.org/1999/xlink"
 width="29px" height="30px">
<path fill-rule="evenodd"  fill="rgb(46, 68, 139)"
 d="M27.674,22.639 L20.104,26.054 C18.594,26.735 16.880,26.695 15.402,25.945 L12.631,24.538 C11.459,23.943 10.100,23.911 8.902,24.452 L8.840,24.480 C8.923,24.783 8.908,25.105 8.795,25.404 C8.658,25.765 8.393,26.052 8.048,26.212 L0.833,29.937 C0.751,29.979 0.662,30.000 0.574,30.000 C0.469,30.000 0.365,29.971 0.273,29.913 C0.103,29.806 -0.000,29.616 0.001,29.412 L0.028,19.220 C0.029,18.989 0.163,18.779 0.370,18.686 L4.059,17.022 C4.411,16.863 4.803,16.854 5.162,16.996 C5.445,17.108 5.680,17.305 5.844,17.559 L8.731,16.256 C10.372,15.516 12.204,15.456 13.888,16.088 L19.459,18.179 C20.544,18.586 21.123,19.827 20.749,20.944 C20.445,21.852 19.609,22.426 18.717,22.426 C18.490,22.426 18.260,22.389 18.034,22.310 L13.725,20.821 C13.425,20.717 13.264,20.385 13.365,20.078 C13.467,19.772 13.792,19.607 14.092,19.711 L18.401,21.200 C18.920,21.380 19.486,21.095 19.664,20.565 C19.838,20.045 19.569,19.468 19.064,19.279 L13.492,17.188 C12.089,16.661 10.562,16.711 9.194,17.328 L6.326,18.622 L8.391,23.401 L8.439,23.380 C9.949,22.698 11.663,22.738 13.141,23.489 L15.912,24.895 C17.084,25.491 18.444,25.522 19.641,24.982 L27.210,21.566 C27.474,21.448 27.677,21.231 27.781,20.956 C27.885,20.682 27.878,20.382 27.762,20.113 C27.522,19.557 26.886,19.305 26.342,19.547 L22.648,21.288 C22.361,21.424 22.020,21.295 21.888,21.002 C21.755,20.708 21.881,20.360 22.168,20.224 L25.867,18.481 C25.870,18.480 25.873,18.478 25.876,18.477 C26.998,17.970 28.315,18.492 28.811,19.639 C29.306,20.786 28.796,22.132 27.674,22.639 ZM7.720,24.750 L4.911,18.248 C4.879,18.174 4.821,18.118 4.748,18.088 C4.674,18.059 4.594,18.061 4.522,18.094 L1.174,19.604 L1.160,24.634 L2.312,24.056 C2.597,23.913 2.940,24.033 3.080,24.323 C3.219,24.614 3.102,24.965 2.818,25.108 L1.157,25.941 L1.150,28.460 C1.150,28.460 7.560,25.151 7.570,25.147 C7.642,25.115 7.697,25.055 7.725,24.980 C7.754,24.905 7.752,24.823 7.720,24.750 ZM4.602,24.281 C4.286,24.281 4.029,24.018 4.029,23.695 C4.029,23.371 4.286,23.109 4.602,23.109 C4.919,23.109 5.176,23.371 5.176,23.695 C5.176,24.018 4.919,24.281 4.602,24.281 ZM20.839,15.916 C16.545,15.916 13.051,12.346 13.051,7.958 C13.051,3.570 16.544,-0.000 20.839,-0.000 C25.133,-0.000 28.626,3.570 28.626,7.958 C28.626,12.346 25.133,15.916 20.839,15.916 ZM20.839,1.172 C17.177,1.172 14.198,4.216 14.198,7.958 C14.198,11.699 17.177,14.744 20.839,14.744 C24.500,14.744 27.479,11.699 27.479,7.958 C27.479,4.216 24.500,1.172 20.839,1.172 ZM21.412,11.782 L21.412,12.497 C21.412,12.821 21.155,13.083 20.839,13.083 C20.522,13.083 20.265,12.821 20.265,12.497 L20.265,11.783 L20.199,11.783 C19.236,11.783 18.452,10.982 18.452,9.998 C18.452,9.674 18.708,9.412 19.025,9.412 C19.342,9.412 19.598,9.674 19.598,9.998 C19.598,10.336 19.868,10.612 20.199,10.612 L21.364,10.612 C21.758,10.612 22.079,10.284 22.079,9.882 L22.079,9.257 C22.079,8.854 21.758,8.527 21.364,8.527 L20.967,8.527 L20.710,8.527 L20.313,8.527 C19.286,8.527 18.452,7.673 18.452,6.625 L18.452,6.000 C18.452,4.967 19.261,4.125 20.265,4.099 L20.265,3.384 C20.265,3.061 20.522,2.799 20.839,2.799 C21.155,2.799 21.412,3.061 21.412,3.384 L21.412,4.098 L21.478,4.098 C22.441,4.098 23.225,4.899 23.225,5.884 C23.225,6.207 22.969,6.470 22.652,6.470 C22.335,6.470 22.079,6.207 22.079,5.884 C22.079,5.545 21.809,5.270 21.478,5.270 L20.313,5.270 C19.919,5.270 19.598,5.597 19.598,6.000 L19.598,6.625 C19.598,7.027 19.919,7.355 20.313,7.355 L20.710,7.355 L20.967,7.355 L21.364,7.355 C22.390,7.355 23.225,8.208 23.225,9.257 L23.225,9.882 C23.225,10.914 22.416,11.756 21.412,11.782 Z"/>
</svg>