<svg 
 xmlns="http://www.w3.org/2000/svg"
 xmlns:xlink="http://www.w3.org/1999/xlink"
 width="23px" height="31px">
<path fill-rule="evenodd"  fill="rgb(46, 68, 139)"
 d="M11.459,11.875 L10.108,11.875 C8.854,11.875 7.833,10.880 7.833,9.657 L7.833,8.892 C7.833,7.669 8.854,6.674 10.108,6.674 L10.162,6.674 L10.162,5.688 C10.162,5.353 10.440,5.082 10.783,5.082 C11.126,5.082 11.404,5.353 11.404,5.688 L11.404,6.674 L11.604,6.674 C12.778,6.674 13.734,7.605 13.734,8.750 C13.734,9.084 13.455,9.355 13.112,9.355 C12.769,9.355 12.491,9.084 12.491,8.750 C12.491,8.273 12.093,7.885 11.604,7.885 L10.108,7.885 C9.539,7.885 9.075,8.337 9.075,8.892 L9.075,9.658 C9.075,10.213 9.539,10.664 10.108,10.664 L11.459,10.664 C12.713,10.664 13.734,11.659 13.734,12.882 L13.734,13.647 C13.734,14.870 12.713,15.865 11.459,15.865 L11.404,15.865 L11.404,16.852 C11.404,17.186 11.126,17.457 10.783,17.457 C10.440,17.457 10.162,17.186 10.162,16.852 L10.162,15.865 L9.962,15.865 C8.788,15.865 7.833,14.934 7.833,13.790 C7.833,13.455 8.111,13.184 8.454,13.184 C8.797,13.184 9.075,13.455 9.075,13.790 C9.075,14.266 9.473,14.654 9.962,14.654 L11.459,14.654 C12.028,14.654 12.491,14.203 12.491,13.647 L12.491,12.882 C12.491,12.327 12.028,11.875 11.459,11.875 ZM22.735,17.741 C22.397,18.294 21.802,18.623 21.142,18.623 C21.139,18.623 21.137,18.623 21.133,18.623 L20.839,18.622 L20.839,20.716 C20.839,22.828 19.077,24.546 16.911,24.546 L15.046,24.546 C14.885,24.546 14.753,24.673 14.753,24.831 L14.753,30.394 C14.753,30.600 14.647,30.791 14.470,30.903 C14.368,30.967 14.250,31.000 14.132,31.000 C14.046,31.000 13.959,30.982 13.878,30.947 L4.845,26.989 C4.533,26.852 4.393,26.494 4.534,26.189 C4.674,25.884 5.042,25.748 5.355,25.885 L13.511,29.459 L13.511,24.831 C13.511,24.006 14.200,23.335 15.046,23.335 L16.911,23.335 C18.392,23.335 19.597,22.160 19.597,20.716 L19.597,18.014 C19.597,17.853 19.663,17.698 19.780,17.585 C19.896,17.472 20.054,17.408 20.218,17.408 C20.219,17.408 20.220,17.408 20.221,17.408 L21.139,17.412 C21.140,17.412 21.141,17.412 21.143,17.412 C21.456,17.412 21.614,17.209 21.668,17.121 C21.722,17.033 21.831,16.799 21.679,16.529 L19.673,12.958 C19.623,12.869 19.597,12.768 19.597,12.667 L19.597,10.157 C19.597,5.224 15.480,1.211 10.420,1.211 C5.359,1.211 1.242,5.224 1.242,10.157 L1.242,11.901 C1.242,13.877 1.870,15.764 3.058,17.359 C3.135,17.462 3.177,17.587 3.177,17.715 L3.177,22.252 C3.177,22.586 2.899,22.858 2.556,22.858 C2.213,22.858 1.934,22.586 1.934,22.252 L1.934,17.908 C0.668,16.140 0.000,14.068 0.000,11.901 L0.000,10.157 C0.000,4.556 4.674,-0.000 10.420,-0.000 C16.165,-0.000 20.839,4.556 20.839,10.157 L20.839,12.512 L22.769,15.948 C23.087,16.515 23.075,17.185 22.735,17.741 ZM2.572,24.689 C2.915,24.689 3.193,24.960 3.193,25.294 C3.193,25.628 2.915,25.899 2.572,25.899 C2.229,25.899 1.950,25.628 1.950,25.294 C1.950,24.960 2.229,24.689 2.572,24.689 Z"/>
</svg>