<svg 
 xmlns="http://www.w3.org/2000/svg"
 xmlns:xlink="http://www.w3.org/1999/xlink"
 width="22px" height="22px">
<path fill-rule="evenodd"  fill="rgb(255, 255, 255)"
 d="M18.778,3.226 C16.736,1.185 14.031,0.046 11.149,0.008 C11.099,0.003 11.049,-0.000 11.000,-0.000 C10.951,-0.000 10.901,0.003 10.851,0.008 C7.969,0.046 5.264,1.185 3.222,3.226 C1.144,5.303 0.000,8.063 0.000,11.000 C0.000,13.937 1.144,16.697 3.222,18.774 C5.264,20.815 7.969,21.954 10.851,21.992 C10.901,21.997 10.951,22.000 11.000,22.000 C11.049,22.000 11.099,21.997 11.149,21.992 C14.031,21.954 16.736,20.815 18.778,18.774 C20.856,16.697 22.000,13.937 22.000,11.000 C22.000,8.063 20.856,5.303 18.778,3.226 ZM4.146,4.150 C5.315,2.982 6.730,2.150 8.273,1.700 C7.925,2.101 7.587,2.561 7.272,3.071 C6.871,3.722 6.523,4.427 6.232,5.173 L3.256,5.173 C3.526,4.815 3.823,4.473 4.146,4.150 ZM2.423,6.480 L5.792,6.480 C5.442,7.706 5.234,9.012 5.183,10.347 L1.330,10.347 C1.420,8.980 1.794,7.668 2.423,6.480 ZM2.423,15.520 C1.794,14.332 1.420,13.020 1.330,11.653 L5.183,11.653 C5.234,12.989 5.442,14.294 5.792,15.520 L2.423,15.520 ZM4.147,17.850 C3.823,17.527 3.526,17.185 3.256,16.827 L6.232,16.827 C6.523,17.573 6.871,18.278 7.272,18.929 C7.587,19.439 7.925,19.900 8.273,20.300 C6.730,19.850 5.315,19.018 4.147,17.850 ZM10.346,20.424 C9.801,20.068 9.070,19.352 8.386,18.243 C8.111,17.798 7.864,17.324 7.646,16.827 L10.346,16.827 L10.346,20.424 L10.346,20.424 ZM10.346,15.520 L7.156,15.520 C6.774,14.309 6.547,13.000 6.492,11.653 L10.346,11.653 L10.346,15.520 L10.346,15.520 ZM10.346,10.347 L6.492,10.347 C6.547,9.000 6.774,7.691 7.156,6.480 L10.346,6.480 L10.346,10.347 L10.346,10.347 ZM10.346,5.173 L7.646,5.173 C7.864,4.676 8.111,4.202 8.386,3.757 C9.070,2.648 9.801,1.932 10.346,1.576 L10.346,5.173 L10.346,5.173 ZM19.577,6.480 C20.206,7.668 20.580,8.980 20.670,10.347 L16.817,10.347 C16.766,9.011 16.558,7.706 16.208,6.480 L19.577,6.480 ZM17.853,4.150 C18.177,4.473 18.473,4.815 18.744,5.173 L15.768,5.173 C15.477,4.427 15.129,3.722 14.728,3.071 C14.413,2.561 14.075,2.101 13.727,1.700 C15.270,2.150 16.685,2.982 17.853,4.150 ZM11.654,1.576 C12.199,1.932 12.930,2.648 13.615,3.757 C13.889,4.202 14.136,4.676 14.354,5.173 L11.654,5.173 L11.654,1.576 L11.654,1.576 ZM11.654,6.480 L14.844,6.480 C15.226,7.691 15.453,9.000 15.508,10.347 L11.654,10.347 L11.654,6.480 ZM15.508,11.653 C15.452,13.000 15.226,14.309 14.844,15.520 L11.654,15.520 L11.654,11.653 L15.508,11.653 ZM11.654,20.424 L11.654,16.827 L14.354,16.827 C14.136,17.324 13.889,17.798 13.614,18.243 C12.930,19.352 12.199,20.068 11.654,20.424 ZM17.853,17.850 C16.685,19.018 15.270,19.850 13.727,20.300 C14.075,19.900 14.413,19.439 14.728,18.929 C15.129,18.278 15.477,17.573 15.768,16.827 L18.744,16.827 C18.473,17.185 18.177,17.527 17.853,17.850 ZM19.577,15.520 L16.208,15.520 C16.558,14.294 16.766,12.989 16.817,11.653 L20.670,11.653 C20.580,13.020 20.206,14.332 19.577,15.520 Z"/>
</svg>