<svg 
 xmlns="http://www.w3.org/2000/svg"
 xmlns:xlink="http://www.w3.org/1999/xlink"
 width="2px" height="413px">
<path fill-rule="evenodd"  opacity="0.4" fill="rgb(204, 208, 220)"
 d="M-0.000,407.000 C-0.000,406.448 0.448,406.000 1.000,406.000 C1.552,406.000 2.000,406.448 2.000,407.000 C2.000,407.552 1.552,408.000 1.000,408.000 C0.448,408.000 -0.000,407.552 -0.000,407.000 ZM-0.000,402.000 C-0.000,401.448 0.448,401.000 1.000,401.000 C1.552,401.000 2.000,401.448 2.000,402.000 C2.000,402.552 1.552,403.000 1.000,403.000 C0.448,403.000 -0.000,402.552 -0.000,402.000 ZM-0.000,397.000 C-0.000,396.448 0.448,396.000 1.000,396.000 C1.552,396.000 2.000,396.448 2.000,397.000 C2.000,397.552 1.552,398.000 1.000,398.000 C0.448,398.000 -0.000,397.552 -0.000,397.000 ZM-0.000,392.000 C-0.000,391.448 0.448,391.000 1.000,391.000 C1.552,391.000 2.000,391.448 2.000,392.000 C2.000,392.552 1.552,393.000 1.000,393.000 C0.448,393.000 -0.000,392.552 -0.000,392.000 ZM-0.000,387.000 C-0.000,386.448 0.448,386.000 1.000,386.000 C1.552,386.000 2.000,386.448 2.000,387.000 C2.000,387.552 1.552,388.000 1.000,388.000 C0.448,388.000 -0.000,387.552 -0.000,387.000 ZM-0.000,382.000 C-0.000,381.448 0.448,381.000 1.000,381.000 C1.552,381.000 2.000,381.448 2.000,382.000 C2.000,382.552 1.552,383.000 1.000,383.000 C0.448,383.000 -0.000,382.552 -0.000,382.000 ZM-0.000,377.000 C-0.000,376.448 0.448,376.000 1.000,376.000 C1.552,376.000 2.000,376.448 2.000,377.000 C2.000,377.552 1.552,378.000 1.000,378.000 C0.448,378.000 -0.000,377.552 -0.000,377.000 ZM-0.000,372.000 C-0.000,371.448 0.448,371.000 1.000,371.000 C1.552,371.000 2.000,371.448 2.000,372.000 C2.000,372.552 1.552,373.000 1.000,373.000 C0.448,373.000 -0.000,372.552 -0.000,372.000 ZM-0.000,367.000 C-0.000,366.448 0.448,366.000 1.000,366.000 C1.552,366.000 2.000,366.448 2.000,367.000 C2.000,367.552 1.552,368.000 1.000,368.000 C0.448,368.000 -0.000,367.552 -0.000,367.000 ZM-0.000,362.000 C-0.000,361.448 0.448,361.000 1.000,361.000 C1.552,361.000 2.000,361.448 2.000,362.000 C2.000,362.552 1.552,363.000 1.000,363.000 C0.448,363.000 -0.000,362.552 -0.000,362.000 ZM-0.000,357.000 C-0.000,356.448 0.448,356.000 1.000,356.000 C1.552,356.000 2.000,356.448 2.000,357.000 C2.000,357.552 1.552,358.000 1.000,358.000 C0.448,358.000 -0.000,357.552 -0.000,357.000 ZM-0.000,352.000 C-0.000,351.448 0.448,351.000 1.000,351.000 C1.552,351.000 2.000,351.448 2.000,352.000 C2.000,352.552 1.552,353.000 1.000,353.000 C0.448,353.000 -0.000,352.552 -0.000,352.000 ZM-0.000,347.000 C-0.000,346.448 0.448,346.000 1.000,346.000 C1.552,346.000 2.000,346.448 2.000,347.000 C2.000,347.552 1.552,348.000 1.000,348.000 C0.448,348.000 -0.000,347.552 -0.000,347.000 ZM-0.000,342.000 C-0.000,341.448 0.448,341.000 1.000,341.000 C1.552,341.000 2.000,341.448 2.000,342.000 C2.000,342.552 1.552,343.000 1.000,343.000 C0.448,343.000 -0.000,342.552 -0.000,342.000 ZM-0.000,337.000 C-0.000,336.448 0.448,336.000 1.000,336.000 C1.552,336.000 2.000,336.448 2.000,337.000 C2.000,337.552 1.552,338.000 1.000,338.000 C0.448,338.000 -0.000,337.552 -0.000,337.000 ZM-0.000,332.000 C-0.000,331.448 0.448,331.000 1.000,331.000 C1.552,331.000 2.000,331.448 2.000,332.000 C2.000,332.552 1.552,333.000 1.000,333.000 C0.448,333.000 -0.000,332.552 -0.000,332.000 ZM-0.000,327.000 C-0.000,326.448 0.448,326.000 1.000,326.000 C1.552,326.000 2.000,326.448 2.000,327.000 C2.000,327.552 1.552,328.000 1.000,328.000 C0.448,328.000 -0.000,327.552 -0.000,327.000 ZM-0.000,322.000 C-0.000,321.448 0.448,321.000 1.000,321.000 C1.552,321.000 2.000,321.448 2.000,322.000 C2.000,322.552 1.552,323.000 1.000,323.000 C0.448,323.000 -0.000,322.552 -0.000,322.000 ZM-0.000,317.000 C-0.000,316.448 0.448,316.000 1.000,316.000 C1.552,316.000 2.000,316.448 2.000,317.000 C2.000,317.552 1.552,318.000 1.000,318.000 C0.448,318.000 -0.000,317.552 -0.000,317.000 ZM-0.000,312.000 C-0.000,311.448 0.448,311.000 1.000,311.000 C1.552,311.000 2.000,311.448 2.000,312.000 C2.000,312.552 1.552,313.000 1.000,313.000 C0.448,313.000 -0.000,312.552 -0.000,312.000 ZM-0.000,307.000 C-0.000,306.448 0.448,306.000 1.000,306.000 C1.552,306.000 2.000,306.448 2.000,307.000 C2.000,307.552 1.552,308.000 1.000,308.000 C0.448,308.000 -0.000,307.552 -0.000,307.000 ZM-0.000,302.000 C-0.000,301.448 0.448,301.000 1.000,301.000 C1.552,301.000 2.000,301.448 2.000,302.000 C2.000,302.552 1.552,303.000 1.000,303.000 C0.448,303.000 -0.000,302.552 -0.000,302.000 ZM-0.000,297.000 C-0.000,296.448 0.448,296.000 1.000,296.000 C1.552,296.000 2.000,296.448 2.000,297.000 C2.000,297.552 1.552,298.000 1.000,298.000 C0.448,298.000 -0.000,297.552 -0.000,297.000 ZM-0.000,292.000 C-0.000,291.448 0.448,291.000 1.000,291.000 C1.552,291.000 2.000,291.448 2.000,292.000 C2.000,292.552 1.552,293.000 1.000,293.000 C0.448,293.000 -0.000,292.552 -0.000,292.000 ZM-0.000,287.000 C-0.000,286.448 0.448,286.000 1.000,286.000 C1.552,286.000 2.000,286.448 2.000,287.000 C2.000,287.552 1.552,288.000 1.000,288.000 C0.448,288.000 -0.000,287.552 -0.000,287.000 ZM-0.000,282.000 C-0.000,281.448 0.448,281.000 1.000,281.000 C1.552,281.000 2.000,281.448 2.000,282.000 C2.000,282.552 1.552,283.000 1.000,283.000 C0.448,283.000 -0.000,282.552 -0.000,282.000 ZM-0.000,277.000 C-0.000,276.448 0.448,276.000 1.000,276.000 C1.552,276.000 2.000,276.448 2.000,277.000 C2.000,277.552 1.552,278.000 1.000,278.000 C0.448,278.000 -0.000,277.552 -0.000,277.000 ZM-0.000,272.000 C-0.000,271.448 0.448,271.000 1.000,271.000 C1.552,271.000 2.000,271.448 2.000,272.000 C2.000,272.552 1.552,273.000 1.000,273.000 C0.448,273.000 -0.000,272.552 -0.000,272.000 ZM-0.000,267.000 C-0.000,266.448 0.448,266.000 1.000,266.000 C1.552,266.000 2.000,266.448 2.000,267.000 C2.000,267.552 1.552,268.000 1.000,268.000 C0.448,268.000 -0.000,267.552 -0.000,267.000 ZM-0.000,262.000 C-0.000,261.448 0.448,261.000 1.000,261.000 C1.552,261.000 2.000,261.448 2.000,262.000 C2.000,262.552 1.552,263.000 1.000,263.000 C0.448,263.000 -0.000,262.552 -0.000,262.000 ZM-0.000,257.000 C-0.000,256.448 0.448,256.000 1.000,256.000 C1.552,256.000 2.000,256.448 2.000,257.000 C2.000,257.552 1.552,258.000 1.000,258.000 C0.448,258.000 -0.000,257.552 -0.000,257.000 ZM-0.000,252.000 C-0.000,251.448 0.448,251.000 1.000,251.000 C1.552,251.000 2.000,251.448 2.000,252.000 C2.000,252.552 1.552,253.000 1.000,253.000 C0.448,253.000 -0.000,252.552 -0.000,252.000 ZM-0.000,247.000 C-0.000,246.448 0.448,246.000 1.000,246.000 C1.552,246.000 2.000,246.448 2.000,247.000 C2.000,247.552 1.552,248.000 1.000,248.000 C0.448,248.000 -0.000,247.552 -0.000,247.000 ZM-0.000,242.000 C-0.000,241.448 0.448,241.000 1.000,241.000 C1.552,241.000 2.000,241.448 2.000,242.000 C2.000,242.552 1.552,243.000 1.000,243.000 C0.448,243.000 -0.000,242.552 -0.000,242.000 ZM-0.000,237.000 C-0.000,236.448 0.448,236.000 1.000,236.000 C1.552,236.000 2.000,236.448 2.000,237.000 C2.000,237.552 1.552,238.000 1.000,238.000 C0.448,238.000 -0.000,237.552 -0.000,237.000 ZM-0.000,232.000 C-0.000,231.448 0.448,231.000 1.000,231.000 C1.552,231.000 2.000,231.448 2.000,232.000 C2.000,232.552 1.552,233.000 1.000,233.000 C0.448,233.000 -0.000,232.552 -0.000,232.000 ZM-0.000,227.000 C-0.000,226.448 0.448,226.000 1.000,226.000 C1.552,226.000 2.000,226.448 2.000,227.000 C2.000,227.552 1.552,228.000 1.000,228.000 C0.448,228.000 -0.000,227.552 -0.000,227.000 ZM-0.000,222.000 C-0.000,221.448 0.448,221.000 1.000,221.000 C1.552,221.000 2.000,221.448 2.000,222.000 C2.000,222.552 1.552,223.000 1.000,223.000 C0.448,223.000 -0.000,222.552 -0.000,222.000 ZM-0.000,217.000 C-0.000,216.448 0.448,216.000 1.000,216.000 C1.552,216.000 2.000,216.448 2.000,217.000 C2.000,217.552 1.552,218.000 1.000,218.000 C0.448,218.000 -0.000,217.552 -0.000,217.000 ZM-0.000,212.000 C-0.000,211.448 0.448,211.000 1.000,211.000 C1.552,211.000 2.000,211.448 2.000,212.000 C2.000,212.552 1.552,213.000 1.000,213.000 C0.448,213.000 -0.000,212.552 -0.000,212.000 ZM-0.000,207.000 C-0.000,206.448 0.448,206.000 1.000,206.000 C1.552,206.000 2.000,206.448 2.000,207.000 C2.000,207.552 1.552,208.000 1.000,208.000 C0.448,208.000 -0.000,207.552 -0.000,207.000 ZM-0.000,202.000 C-0.000,201.448 0.448,201.000 1.000,201.000 C1.552,201.000 2.000,201.448 2.000,202.000 C2.000,202.552 1.552,203.000 1.000,203.000 C0.448,203.000 -0.000,202.552 -0.000,202.000 ZM-0.000,197.000 C-0.000,196.448 0.448,196.000 1.000,196.000 C1.552,196.000 2.000,196.448 2.000,197.000 C2.000,197.552 1.552,198.000 1.000,198.000 C0.448,198.000 -0.000,197.552 -0.000,197.000 ZM-0.000,192.000 C-0.000,191.448 0.448,191.000 1.000,191.000 C1.552,191.000 2.000,191.448 2.000,192.000 C2.000,192.552 1.552,193.000 1.000,193.000 C0.448,193.000 -0.000,192.552 -0.000,192.000 ZM-0.000,187.000 C-0.000,186.448 0.448,186.000 1.000,186.000 C1.552,186.000 2.000,186.448 2.000,187.000 C2.000,187.552 1.552,188.000 1.000,188.000 C0.448,188.000 -0.000,187.552 -0.000,187.000 ZM-0.000,182.000 C-0.000,181.448 0.448,181.000 1.000,181.000 C1.552,181.000 2.000,181.448 2.000,182.000 C2.000,182.552 1.552,183.000 1.000,183.000 C0.448,183.000 -0.000,182.552 -0.000,182.000 ZM-0.000,177.000 C-0.000,176.448 0.448,176.000 1.000,176.000 C1.552,176.000 2.000,176.448 2.000,177.000 C2.000,177.552 1.552,178.000 1.000,178.000 C0.448,178.000 -0.000,177.552 -0.000,177.000 ZM-0.000,172.000 C-0.000,171.448 0.448,171.000 1.000,171.000 C1.552,171.000 2.000,171.448 2.000,172.000 C2.000,172.552 1.552,173.000 1.000,173.000 C0.448,173.000 -0.000,172.552 -0.000,172.000 ZM-0.000,167.000 C-0.000,166.448 0.448,166.000 1.000,166.000 C1.552,166.000 2.000,166.448 2.000,167.000 C2.000,167.552 1.552,168.000 1.000,168.000 C0.448,168.000 -0.000,167.552 -0.000,167.000 ZM-0.000,162.000 C-0.000,161.448 0.448,161.000 1.000,161.000 C1.552,161.000 2.000,161.448 2.000,162.000 C2.000,162.552 1.552,163.000 1.000,163.000 C0.448,163.000 -0.000,162.552 -0.000,162.000 ZM-0.000,157.000 C-0.000,156.448 0.448,156.000 1.000,156.000 C1.552,156.000 2.000,156.448 2.000,157.000 C2.000,157.552 1.552,158.000 1.000,158.000 C0.448,158.000 -0.000,157.552 -0.000,157.000 ZM-0.000,152.000 C-0.000,151.448 0.448,151.000 1.000,151.000 C1.552,151.000 2.000,151.448 2.000,152.000 C2.000,152.552 1.552,153.000 1.000,153.000 C0.448,153.000 -0.000,152.552 -0.000,152.000 ZM-0.000,147.000 C-0.000,146.448 0.448,146.000 1.000,146.000 C1.552,146.000 2.000,146.448 2.000,147.000 C2.000,147.552 1.552,148.000 1.000,148.000 C0.448,148.000 -0.000,147.552 -0.000,147.000 ZM-0.000,142.000 C-0.000,141.448 0.448,141.000 1.000,141.000 C1.552,141.000 2.000,141.448 2.000,142.000 C2.000,142.552 1.552,143.000 1.000,143.000 C0.448,143.000 -0.000,142.552 -0.000,142.000 ZM-0.000,137.000 C-0.000,136.448 0.448,136.000 1.000,136.000 C1.552,136.000 2.000,136.448 2.000,137.000 C2.000,137.552 1.552,138.000 1.000,138.000 C0.448,138.000 -0.000,137.552 -0.000,137.000 ZM-0.000,132.000 C-0.000,131.448 0.448,131.000 1.000,131.000 C1.552,131.000 2.000,131.448 2.000,132.000 C2.000,132.552 1.552,133.000 1.000,133.000 C0.448,133.000 -0.000,132.552 -0.000,132.000 ZM-0.000,127.000 C-0.000,126.448 0.448,126.000 1.000,126.000 C1.552,126.000 2.000,126.448 2.000,127.000 C2.000,127.552 1.552,128.000 1.000,128.000 C0.448,128.000 -0.000,127.552 -0.000,127.000 ZM-0.000,121.000 C-0.000,120.448 0.448,120.000 1.000,120.000 C1.552,120.000 2.000,120.448 2.000,121.000 C2.000,121.552 1.552,122.000 1.000,122.000 C0.448,122.000 -0.000,121.552 -0.000,121.000 ZM-0.000,116.000 C-0.000,115.448 0.448,115.000 1.000,115.000 C1.552,115.000 2.000,115.448 2.000,116.000 C2.000,116.552 1.552,117.000 1.000,117.000 C0.448,117.000 -0.000,116.552 -0.000,116.000 ZM-0.000,111.000 C-0.000,110.448 0.448,110.000 1.000,110.000 C1.552,110.000 2.000,110.448 2.000,111.000 C2.000,111.552 1.552,112.000 1.000,112.000 C0.448,112.000 -0.000,111.552 -0.000,111.000 ZM-0.000,106.000 C-0.000,105.448 0.448,105.000 1.000,105.000 C1.552,105.000 2.000,105.448 2.000,106.000 C2.000,106.552 1.552,107.000 1.000,107.000 C0.448,107.000 -0.000,106.552 -0.000,106.000 ZM-0.000,101.000 C-0.000,100.448 0.448,100.000 1.000,100.000 C1.552,100.000 2.000,100.448 2.000,101.000 C2.000,101.552 1.552,102.000 1.000,102.000 C0.448,102.000 -0.000,101.552 -0.000,101.000 ZM-0.000,96.000 C-0.000,95.448 0.448,95.000 1.000,95.000 C1.552,95.000 2.000,95.448 2.000,96.000 C2.000,96.552 1.552,97.000 1.000,97.000 C0.448,97.000 -0.000,96.552 -0.000,96.000 ZM-0.000,91.000 C-0.000,90.448 0.448,90.000 1.000,90.000 C1.552,90.000 2.000,90.448 2.000,91.000 C2.000,91.552 1.552,92.000 1.000,92.000 C0.448,92.000 -0.000,91.552 -0.000,91.000 ZM-0.000,86.000 C-0.000,85.448 0.448,85.000 1.000,85.000 C1.552,85.000 2.000,85.448 2.000,86.000 C2.000,86.552 1.552,87.000 1.000,87.000 C0.448,87.000 -0.000,86.552 -0.000,86.000 ZM-0.000,81.000 C-0.000,80.448 0.448,80.000 1.000,80.000 C1.552,80.000 2.000,80.448 2.000,81.000 C2.000,81.552 1.552,82.000 1.000,82.000 C0.448,82.000 -0.000,81.552 -0.000,81.000 ZM-0.000,76.000 C-0.000,75.448 0.448,75.000 1.000,75.000 C1.552,75.000 2.000,75.448 2.000,76.000 C2.000,76.552 1.552,77.000 1.000,77.000 C0.448,77.000 -0.000,76.552 -0.000,76.000 ZM-0.000,71.000 C-0.000,70.448 0.448,70.000 1.000,70.000 C1.552,70.000 2.000,70.448 2.000,71.000 C2.000,71.552 1.552,72.000 1.000,72.000 C0.448,72.000 -0.000,71.552 -0.000,71.000 ZM-0.000,66.000 C-0.000,65.448 0.448,65.000 1.000,65.000 C1.552,65.000 2.000,65.448 2.000,66.000 C2.000,66.552 1.552,67.000 1.000,67.000 C0.448,67.000 -0.000,66.552 -0.000,66.000 ZM-0.000,61.000 C-0.000,60.448 0.448,60.000 1.000,60.000 C1.552,60.000 2.000,60.448 2.000,61.000 C2.000,61.552 1.552,62.000 1.000,62.000 C0.448,62.000 -0.000,61.552 -0.000,61.000 ZM-0.000,56.000 C-0.000,55.448 0.448,55.000 1.000,55.000 C1.552,55.000 2.000,55.448 2.000,56.000 C2.000,56.552 1.552,57.000 1.000,57.000 C0.448,57.000 -0.000,56.552 -0.000,56.000 ZM-0.000,51.000 C-0.000,50.448 0.448,50.000 1.000,50.000 C1.552,50.000 2.000,50.448 2.000,51.000 C2.000,51.552 1.552,52.000 1.000,52.000 C0.448,52.000 -0.000,51.552 -0.000,51.000 ZM-0.000,46.000 C-0.000,45.448 0.448,45.000 1.000,45.000 C1.552,45.000 2.000,45.448 2.000,46.000 C2.000,46.552 1.552,47.000 1.000,47.000 C0.448,47.000 -0.000,46.552 -0.000,46.000 ZM-0.000,41.000 C-0.000,40.448 0.448,40.000 1.000,40.000 C1.552,40.000 2.000,40.448 2.000,41.000 C2.000,41.552 1.552,42.000 1.000,42.000 C0.448,42.000 -0.000,41.552 -0.000,41.000 ZM-0.000,36.000 C-0.000,35.448 0.448,35.000 1.000,35.000 C1.552,35.000 2.000,35.448 2.000,36.000 C2.000,36.552 1.552,37.000 1.000,37.000 C0.448,37.000 -0.000,36.552 -0.000,36.000 ZM-0.000,31.000 C-0.000,30.448 0.448,30.000 1.000,30.000 C1.552,30.000 2.000,30.448 2.000,31.000 C2.000,31.552 1.552,32.000 1.000,32.000 C0.448,32.000 -0.000,31.552 -0.000,31.000 ZM-0.000,26.000 C-0.000,25.448 0.448,25.000 1.000,25.000 C1.552,25.000 2.000,25.448 2.000,26.000 C2.000,26.552 1.552,27.000 1.000,27.000 C0.448,27.000 -0.000,26.552 -0.000,26.000 ZM-0.000,21.000 C-0.000,20.448 0.448,20.000 1.000,20.000 C1.552,20.000 2.000,20.448 2.000,21.000 C2.000,21.552 1.552,22.000 1.000,22.000 C0.448,22.000 -0.000,21.552 -0.000,21.000 ZM-0.000,16.000 C-0.000,15.448 0.448,15.000 1.000,15.000 C1.552,15.000 2.000,15.448 2.000,16.000 C2.000,16.552 1.552,17.000 1.000,17.000 C0.448,17.000 -0.000,16.552 -0.000,16.000 ZM-0.000,11.000 C-0.000,10.448 0.448,10.000 1.000,10.000 C1.552,10.000 2.000,10.448 2.000,11.000 C2.000,11.552 1.552,12.000 1.000,12.000 C0.448,12.000 -0.000,11.552 -0.000,11.000 ZM-0.000,6.000 C-0.000,5.448 0.448,5.000 1.000,5.000 C1.552,5.000 2.000,5.448 2.000,6.000 C2.000,6.552 1.552,7.000 1.000,7.000 C0.448,7.000 -0.000,6.552 -0.000,6.000 ZM-0.000,1.000 C-0.000,0.448 0.448,-0.000 1.000,-0.000 C1.552,-0.000 2.000,0.448 2.000,1.000 C2.000,1.552 1.552,2.000 1.000,2.000 C0.448,2.000 -0.000,1.552 -0.000,1.000 ZM2.000,412.000 C2.000,412.552 1.552,413.000 1.000,413.000 C0.448,413.000 -0.000,412.552 -0.000,412.000 C-0.000,411.448 0.448,411.000 1.000,411.000 C1.552,411.000 2.000,411.448 2.000,412.000 Z"/>
</svg>