<svg 
 xmlns="http://www.w3.org/2000/svg"
 xmlns:xlink="http://www.w3.org/1999/xlink"
 width="2px" height="22px">
<path fill-rule="evenodd"  fill="rgb(73, 97, 174)"
 d="M1.000,17.000 C0.448,17.000 0.000,16.552 0.000,16.000 C0.000,15.448 0.448,15.000 1.000,15.000 C1.552,15.000 2.000,15.448 2.000,16.000 C2.000,16.552 1.552,17.000 1.000,17.000 ZM1.000,12.000 C0.448,12.000 0.000,11.552 0.000,11.000 C0.000,10.448 0.448,10.000 1.000,10.000 C1.552,10.000 2.000,10.448 2.000,11.000 C2.000,11.552 1.552,12.000 1.000,12.000 ZM1.000,7.000 C0.448,7.000 0.000,6.552 0.000,6.000 C0.000,5.448 0.448,5.000 1.000,5.000 C1.552,5.000 2.000,5.448 2.000,6.000 C2.000,6.552 1.552,7.000 1.000,7.000 ZM1.000,2.000 C0.448,2.000 0.000,1.552 0.000,1.000 C0.000,0.448 0.448,-0.000 1.000,-0.000 C1.552,-0.000 2.000,0.448 2.000,1.000 C2.000,1.552 1.552,2.000 1.000,2.000 ZM1.000,20.000 C1.552,20.000 2.000,20.448 2.000,21.000 C2.000,21.552 1.552,22.000 1.000,22.000 C0.448,22.000 0.000,21.552 0.000,21.000 C0.000,20.448 0.448,20.000 1.000,20.000 Z"/>
</svg>