<svg 
 xmlns="http://www.w3.org/2000/svg"
 xmlns:xlink="http://www.w3.org/1999/xlink"
 width="26px" height="26px">
<path fill-rule="evenodd"  fill="rgb(0, 119, 181)"
 d="M24.614,1.999 C23.690,1.068 22.576,0.602 21.274,0.602 L5.513,0.602 C4.211,0.602 3.097,1.068 2.172,1.999 C1.248,2.930 0.785,4.052 0.785,5.363 L0.785,21.232 C0.785,22.543 1.248,23.664 2.172,24.596 C3.097,25.527 4.211,25.993 5.513,25.993 L21.274,25.993 C22.576,25.993 23.690,25.527 24.614,24.596 C25.539,23.664 26.001,22.543 26.001,21.232 L26.001,5.363 C26.001,4.052 25.539,2.930 24.614,1.999 ZM8.468,21.860 L4.676,21.860 L4.676,10.388 L8.468,10.388 L8.468,21.860 ZM8.124,8.264 C7.730,8.644 7.210,8.834 6.564,8.834 L6.548,8.834 C5.924,8.834 5.418,8.644 5.029,8.264 C4.640,7.884 4.446,7.413 4.446,6.850 C4.446,6.278 4.646,5.804 5.045,5.429 C5.445,5.054 5.962,4.867 6.597,4.867 C7.232,4.867 7.741,5.054 8.124,5.429 C8.507,5.804 8.704,6.278 8.715,6.850 C8.715,7.413 8.518,7.884 8.124,8.264 ZM22.111,21.860 L18.318,21.860 L18.318,15.727 C18.318,13.997 17.684,13.132 16.414,13.132 C15.933,13.132 15.528,13.267 15.200,13.537 C14.871,13.807 14.624,14.135 14.461,14.521 C14.384,14.719 14.346,15.027 14.346,15.446 L14.346,21.860 L10.553,21.860 C10.586,14.939 10.586,11.115 10.553,10.388 L14.346,10.388 L14.346,12.007 C15.143,10.752 16.275,10.123 17.744,10.123 C19.058,10.123 20.114,10.559 20.913,11.429 C21.712,12.300 22.111,13.584 22.111,15.280 L22.111,21.860 L22.111,21.860 Z"/>
</svg>