<svg 
 xmlns="http://www.w3.org/2000/svg"
 xmlns:xlink="http://www.w3.org/1999/xlink"
 width="17px" height="17px">
<path fill-rule="evenodd"  fill="rgb(255, 255, 255)"
 d="M3.920,17.006 L0.351,17.006 L0.351,6.299 L3.920,6.299 L3.920,17.006 ZM2.136,4.277 C0.946,4.277 -0.006,3.325 -0.006,2.135 C-0.006,0.946 0.946,-0.006 2.136,-0.006 C3.325,-0.006 4.277,0.946 4.277,2.135 C4.277,3.325 3.325,4.277 2.136,4.277 ZM17.006,17.006 L13.437,17.006 L13.437,10.701 C13.437,9.749 12.604,8.917 11.653,8.917 C10.701,8.917 9.868,9.749 9.868,10.701 L9.868,17.006 L6.299,17.006 L6.299,6.299 L9.868,6.299 L9.868,7.727 C10.463,6.775 11.772,6.061 12.842,6.061 C15.103,6.061 17.006,7.965 17.006,10.225 L17.006,17.006 Z"/>
</svg>