<svg 
 xmlns="http://www.w3.org/2000/svg"
 xmlns:xlink="http://www.w3.org/1999/xlink"
 width="30px" height="44px">
<path fill-rule="evenodd"  fill="rgb(46, 68, 139)"
 d="M26.999,26.195 L15.000,43.996 L2.982,26.170 C-1.501,20.032 -0.850,9.900 4.393,4.516 C7.226,1.606 10.993,0.003 15.000,0.003 C19.006,0.003 22.773,1.606 25.606,4.516 C30.849,9.900 31.501,20.032 26.999,26.195 ZM24.500,5.652 C21.962,3.046 18.588,1.610 15.000,1.610 C11.411,1.610 8.037,3.046 5.500,5.652 C0.768,10.512 0.185,19.661 4.252,25.231 L15.000,41.173 L25.730,25.255 C29.815,19.661 29.232,10.512 24.500,5.652 ZM15.138,20.892 C12.120,20.892 9.663,18.368 9.663,15.268 C9.663,12.168 12.120,9.644 15.138,9.644 C18.157,9.644 20.613,12.168 20.613,15.268 C20.613,18.368 18.157,20.892 15.138,20.892 ZM15.138,11.251 C12.982,11.251 11.227,13.053 11.227,15.268 C11.227,17.483 12.982,19.285 15.138,19.285 C17.295,19.285 19.049,17.483 19.049,15.268 C19.049,13.053 17.295,11.251 15.138,11.251 Z"/>
</svg>