<svg 
 xmlns="http://www.w3.org/2000/svg"
 xmlns:xlink="http://www.w3.org/1999/xlink"
 width="55px" height="55px">
<defs>
<filter id="Filter_0">
    <feFlood flood-color="rgb(255, 255, 255)" flood-opacity="1" result="floodOut" />
    <feComposite operator="atop" in="floodOut" in2="SourceGraphic" result="compOut" />
    <feBlend mode="normal" in="compOut" in2="SourceGraphic" />
</filter>

</defs>
<g filter="url(#Filter_0)">
<path fill-rule="evenodd"  fill="rgb(0, 0, 0)"
 d="M55.000,27.500 C55.000,12.337 42.663,-0.000 27.500,-0.000 C12.337,-0.000 -0.000,12.337 -0.000,27.500 C-0.000,35.509 3.444,42.728 8.926,47.758 L8.900,47.781 L9.792,48.533 C9.850,48.582 9.913,48.622 9.971,48.670 C10.445,49.063 10.936,49.436 11.436,49.797 C11.598,49.914 11.760,50.031 11.925,50.145 C12.459,50.513 13.007,50.862 13.567,51.193 C13.689,51.265 13.812,51.335 13.935,51.405 C14.548,51.754 15.174,52.083 15.815,52.385 C15.862,52.407 15.910,52.427 15.957,52.449 C18.046,53.420 20.276,54.133 22.608,54.554 C22.669,54.565 22.730,54.576 22.792,54.587 C23.516,54.712 24.248,54.812 24.989,54.879 C25.079,54.887 25.169,54.892 25.260,54.900 C25.998,54.961 26.744,55.000 27.500,55.000 C28.249,55.000 28.988,54.961 29.722,54.902 C29.815,54.894 29.908,54.889 30.001,54.881 C30.736,54.814 31.462,54.717 32.179,54.594 C32.241,54.583 32.304,54.572 32.366,54.560 C34.663,54.148 36.861,53.451 38.923,52.505 C38.999,52.470 39.076,52.437 39.152,52.401 C39.769,52.111 40.372,51.798 40.963,51.465 C41.110,51.382 41.256,51.298 41.402,51.212 C41.940,50.895 42.469,50.564 42.983,50.212 C43.168,50.086 43.349,49.953 43.532,49.821 C43.971,49.505 44.402,49.179 44.821,48.838 C44.914,48.763 45.014,48.698 45.105,48.621 L46.020,47.857 L45.993,47.834 C51.523,42.802 55.000,35.550 55.000,27.500 ZM2.000,27.500 C2.000,13.439 13.439,2.000 27.500,2.000 C41.561,2.000 53.000,13.439 53.000,27.500 C53.000,35.077 49.675,41.889 44.411,46.563 C44.117,46.360 43.821,46.178 43.518,46.026 L35.051,41.793 C34.291,41.413 33.819,40.649 33.819,39.800 L33.819,36.843 C34.015,36.601 34.222,36.327 34.436,36.026 C35.532,34.478 36.411,32.756 37.052,30.903 C38.319,30.301 39.137,29.039 39.137,27.614 L39.137,24.069 C39.137,23.202 38.819,22.361 38.250,21.700 L38.250,17.033 C38.302,16.514 38.486,13.585 36.367,11.169 C34.524,9.065 31.541,8.000 27.500,8.000 C23.459,8.000 20.476,9.065 18.633,11.168 C16.514,13.584 16.698,16.513 16.750,17.032 L16.750,21.699 C16.182,22.360 15.863,23.201 15.863,24.068 L15.863,27.613 C15.863,28.714 16.357,29.741 17.203,30.434 C18.013,33.607 19.680,36.009 20.296,36.823 L20.296,39.717 C20.296,40.533 19.851,41.283 19.134,41.675 L11.227,45.988 C10.975,46.125 10.725,46.285 10.475,46.464 C5.276,41.792 2.000,35.022 2.000,27.500 ZM42.459,48.132 C42.109,48.386 41.753,48.632 41.392,48.867 C41.226,48.975 41.061,49.083 40.892,49.188 C40.420,49.480 39.940,49.758 39.450,50.018 C39.342,50.075 39.233,50.129 39.124,50.185 C37.998,50.762 36.833,51.258 35.636,51.661 C35.594,51.675 35.552,51.690 35.509,51.704 C34.882,51.912 34.247,52.097 33.605,52.256 C33.603,52.256 33.601,52.257 33.599,52.257 C32.951,52.417 32.295,52.550 31.635,52.659 C31.617,52.662 31.599,52.666 31.581,52.669 C30.960,52.770 30.334,52.843 29.706,52.898 C29.595,52.908 29.484,52.915 29.372,52.923 C28.751,52.970 28.127,53.000 27.500,53.000 C26.866,53.000 26.234,52.969 25.605,52.922 C25.496,52.914 25.387,52.907 25.279,52.897 C24.645,52.841 24.014,52.766 23.389,52.664 C23.361,52.659 23.333,52.654 23.305,52.649 C21.983,52.428 20.682,52.103 19.415,51.678 C19.376,51.665 19.336,51.651 19.297,51.638 C18.668,51.424 18.046,51.187 17.435,50.925 C17.431,50.923 17.426,50.921 17.422,50.919 C16.844,50.670 16.277,50.394 15.717,50.103 C15.644,50.065 15.570,50.029 15.498,49.990 C14.987,49.717 14.487,49.422 13.994,49.114 C13.848,49.022 13.703,48.929 13.559,48.835 C13.105,48.538 12.657,48.229 12.221,47.902 C12.176,47.868 12.133,47.832 12.088,47.798 C12.120,47.780 12.152,47.762 12.184,47.744 L20.091,43.431 C21.451,42.689 22.296,41.266 22.296,39.717 L22.295,36.115 L22.065,35.837 C22.043,35.812 19.881,33.182 19.064,29.621 L18.973,29.225 L18.632,29.004 C18.151,28.693 17.863,28.173 17.863,27.612 L17.863,24.067 C17.863,23.602 18.060,23.169 18.420,22.844 L18.750,22.546 L18.750,16.976 L18.741,16.845 C18.738,16.821 18.443,14.416 20.137,12.485 C21.583,10.837 24.061,10.000 27.500,10.000 C30.926,10.000 33.396,10.830 34.846,12.466 C36.538,14.377 36.261,16.827 36.259,16.847 L36.250,22.548 L36.580,22.846 C36.939,23.170 37.137,23.604 37.137,24.069 L37.137,27.614 C37.137,28.327 36.652,28.974 35.956,29.189 L35.459,29.342 L35.299,29.837 C34.709,31.670 33.869,33.363 32.803,34.869 C32.541,35.239 32.286,35.567 32.067,35.818 L31.819,36.101 L31.819,39.800 C31.819,41.412 32.715,42.862 34.157,43.582 L42.624,47.815 C42.678,47.842 42.731,47.870 42.784,47.898 C42.677,47.979 42.567,48.054 42.459,48.132 Z"/>
</g>
</svg>