<svg 
 xmlns="http://www.w3.org/2000/svg"
 xmlns:xlink="http://www.w3.org/1999/xlink"
 width="149px" height="25px">
<path fill-rule="evenodd"  fill="rgb(255, 255, 255)"
 d="M144.477,16.398 L146.430,20.203 C146.699,20.722 147.036,20.861 147.844,20.861 L148.989,20.861 L148.989,24.562 L145.824,24.562 C144.376,24.562 143.803,24.320 143.130,23.040 L140.267,17.505 C139.931,16.882 139.223,16.848 138.685,16.848 L137.742,16.848 L137.742,24.562 L133.465,24.562 L133.465,4.498 C133.465,3.980 133.196,3.737 132.724,3.737 L131.377,3.737 L131.377,0.001 L135.452,0.001 C137.034,0.001 137.742,0.382 137.742,2.008 L137.742,13.147 L139.021,13.147 C139.560,13.147 140.267,13.043 140.638,12.489 L144.140,6.920 L148.888,6.920 L144.544,13.562 C143.803,14.669 143.264,14.945 143.264,14.945 L143.264,15.014 C143.264,15.014 143.871,15.257 144.477,16.398 ZM119.641,24.977 C114.422,24.977 110.246,21.172 110.246,15.741 C110.246,10.344 114.422,6.505 119.641,6.505 C124.894,6.505 129.070,10.344 129.070,15.741 C129.070,21.172 124.894,24.977 119.641,24.977 ZM119.641,10.241 C116.880,10.241 114.556,12.489 114.556,15.741 C114.556,19.027 116.880,21.241 119.641,21.241 C122.436,21.241 124.760,19.027 124.760,15.741 C124.760,12.489 122.436,10.241 119.641,10.241 ZM98.005,24.977 C92.785,24.977 88.609,21.172 88.609,15.741 C88.609,10.344 92.785,6.505 98.005,6.505 C103.258,6.505 107.434,10.344 107.434,15.741 C107.434,21.172 103.258,24.977 98.005,24.977 ZM98.005,10.241 C95.243,10.241 92.920,12.489 92.920,15.741 C92.920,19.027 95.243,21.241 98.005,21.241 C100.800,21.241 103.123,19.027 103.123,15.741 C103.123,12.489 100.800,10.241 98.005,10.241 ZM85.696,17.436 C85.696,22.348 81.891,24.562 77.446,24.562 L71.485,24.562 C69.903,24.562 69.195,23.870 69.195,22.210 L69.195,3.841 L67.006,3.841 L67.006,0.001 L77.345,0.001 C81.655,0.001 84.753,2.285 84.753,6.332 C84.753,9.065 83.305,10.829 81.857,11.590 L81.857,11.659 C84.450,12.455 85.696,14.945 85.696,17.436 ZM77.311,3.841 L73.607,3.841 L73.607,10.033 L77.378,10.033 C79.230,10.033 80.274,8.649 80.274,6.885 C80.274,5.121 79.264,3.841 77.311,3.841 ZM77.782,13.631 L73.607,13.631 L73.607,19.961 C73.607,20.445 73.876,20.722 74.348,20.722 L77.782,20.722 C79.938,20.722 81.150,19.235 81.150,17.159 C81.150,15.118 79.904,13.631 77.782,13.631 ZM61.579,22.452 L61.579,3.045 C61.579,2.561 61.310,2.285 60.838,2.285 L59.424,2.285 L59.424,0.244 L61.815,0.244 C63.263,0.244 63.869,0.866 63.869,2.354 L63.869,21.760 C63.869,22.279 64.138,22.521 64.610,22.521 L66.024,22.521 L66.024,24.562 L63.633,24.562 C62.185,24.562 61.579,23.939 61.579,22.452 ZM54.617,22.486 C54.617,21.725 54.651,21.207 54.651,21.207 L54.584,21.207 C54.617,21.207 53.203,24.977 48.960,24.977 C46.131,24.977 43.202,23.282 43.202,19.823 C43.202,14.046 50.644,13.838 53.574,13.838 L54.516,13.838 L54.516,13.631 C54.516,9.998 53.237,8.719 50.139,8.719 C49.297,8.719 46.839,8.961 46.839,10.241 L46.839,11.348 L44.650,11.348 L44.650,9.687 C44.650,7.266 48.691,6.747 50.172,6.747 C55.527,6.747 56.806,9.687 56.806,13.423 L56.806,21.760 C56.806,22.279 57.076,22.521 57.547,22.521 L58.962,22.521 L58.962,24.562 L56.638,24.562 C55.190,24.562 54.617,23.905 54.617,22.486 ZM54.516,15.706 L53.540,15.706 C50.880,15.706 45.559,15.776 45.559,19.684 C45.559,21.310 46.805,22.971 49.330,22.971 C52.563,22.971 54.516,19.512 54.516,16.502 L54.516,15.706 ZM26.360,15.949 C26.427,20.342 29.424,22.867 32.927,22.867 C36.025,22.867 38.012,20.722 38.012,20.722 L39.123,22.486 C39.123,22.486 36.665,24.977 32.826,24.977 C27.808,24.977 23.969,21.241 23.969,15.879 C23.969,10.171 27.774,6.747 32.320,6.747 C37.001,6.747 39.426,10.448 39.426,14.772 C39.426,15.187 39.359,15.949 39.359,15.949 L26.360,15.949 ZM32.287,8.719 C29.492,8.719 27.034,10.587 26.461,14.081 L37.069,14.081 C36.934,10.483 34.779,8.719 32.287,8.719 ZM9.492,24.562 L4.239,24.562 C2.791,24.562 2.185,23.939 2.185,22.452 L2.185,2.388 L-0.004,2.388 L-0.004,0.244 L9.492,0.244 C16.631,0.244 21.380,4.706 21.380,12.386 C21.380,20.134 16.631,24.562 9.492,24.562 ZM9.257,2.388 L4.542,2.388 L4.542,21.656 C4.542,22.175 4.812,22.417 5.283,22.417 L9.257,22.417 C15.082,22.417 18.921,18.889 18.921,12.386 C18.921,5.917 15.049,2.388 9.257,2.388 Z"/>
</svg>