<svg 
 xmlns="http://www.w3.org/2000/svg"
 xmlns:xlink="http://www.w3.org/1999/xlink"
 width="49px" height="36px">
<path fill-rule="evenodd"  fill="rgb(48, 209, 203)"
 d="M6.950,14.171 C6.423,14.171 5.995,13.735 5.995,13.198 C5.995,12.660 6.423,12.225 6.950,12.225 C7.478,12.225 7.906,12.660 7.906,13.198 C7.906,13.735 7.478,14.171 6.950,14.171 ZM42.905,13.101 C42.905,13.638 42.477,14.074 41.949,14.074 C41.421,14.074 40.994,13.638 40.994,13.101 C40.994,12.563 41.421,12.127 41.949,12.127 C42.477,12.127 42.905,12.563 42.905,13.101 ZM48.719,13.341 L43.135,19.029 C42.686,19.486 42.097,19.714 41.508,19.714 C41.047,19.714 40.586,19.572 40.192,19.291 L37.052,22.216 C37.268,22.652 37.384,23.137 37.386,23.640 C37.389,24.495 37.063,25.299 36.470,25.903 C35.901,26.483 35.151,26.812 34.350,26.835 C34.353,27.630 34.071,28.427 33.501,29.059 C32.935,29.688 32.169,30.060 31.336,30.112 C31.336,30.114 31.336,30.115 31.336,30.117 C31.347,30.938 31.039,31.709 30.469,32.290 C29.930,32.839 29.233,33.131 28.526,33.167 C28.495,33.910 28.197,34.604 27.677,35.134 C27.129,35.692 26.399,36.000 25.623,36.000 C24.848,36.000 24.118,35.692 23.570,35.134 L22.399,33.942 C21.941,34.191 21.418,34.333 20.863,34.333 C19.059,34.333 17.591,32.838 17.591,31.000 C17.591,30.998 17.591,30.997 17.591,30.995 C15.792,30.989 14.331,29.497 14.331,27.663 C14.331,27.663 14.331,27.662 14.331,27.662 C14.327,27.662 14.323,27.662 14.319,27.662 C12.514,27.662 11.046,26.167 11.046,24.329 C11.046,23.765 11.185,23.233 11.429,22.767 L8.286,19.565 C8.029,19.662 7.759,19.712 7.489,19.712 C6.900,19.712 6.311,19.484 5.862,19.027 L0.278,13.339 C-0.096,12.958 -0.096,12.341 0.278,11.960 L9.461,2.606 C9.835,2.226 10.441,2.225 10.815,2.606 C11.189,2.987 11.189,3.605 10.815,3.986 L2.309,12.650 L7.216,17.648 C7.314,17.748 7.429,17.763 7.489,17.763 C7.546,17.763 7.654,17.748 7.749,17.658 C7.752,17.655 7.755,17.652 7.758,17.649 L17.185,8.049 L17.451,7.778 C17.550,7.677 17.564,7.561 17.564,7.500 C17.564,7.439 17.550,7.322 17.451,7.222 L14.247,3.958 C13.873,3.577 13.873,2.960 14.247,2.579 C14.621,2.198 15.227,2.198 15.601,2.579 L18.805,5.843 C19.240,6.286 19.479,6.874 19.479,7.500 C19.479,7.713 19.451,7.922 19.397,8.123 L20.802,9.554 L23.956,9.554 L24.294,9.554 L28.589,9.554 L29.703,8.420 C29.347,7.566 29.509,6.540 30.191,5.845 L33.485,2.490 C33.859,2.110 34.465,2.110 34.839,2.490 C35.212,2.871 35.212,3.489 34.839,3.869 L31.545,7.224 C31.395,7.377 31.395,7.626 31.545,7.780 L41.236,17.650 C41.386,17.803 41.630,17.803 41.781,17.650 L46.688,12.651 L38.295,4.102 C37.921,3.721 37.921,3.104 38.295,2.723 C38.669,2.342 39.275,2.342 39.649,2.723 L48.719,11.962 C49.093,12.343 49.093,12.960 48.719,13.341 ZM20.863,32.383 C21.231,32.383 21.564,32.233 21.809,31.990 C21.814,31.985 21.818,31.980 21.822,31.975 C21.827,31.970 21.832,31.967 21.836,31.963 C22.074,31.713 22.221,31.374 22.221,31.000 C22.221,30.238 21.611,29.617 20.863,29.617 C20.519,29.617 20.205,29.749 19.966,29.965 C19.929,30.005 19.891,30.043 19.852,30.081 C19.637,30.325 19.505,30.647 19.505,31.000 C19.505,31.762 20.114,32.383 20.863,32.383 ZM17.603,29.046 C17.947,29.046 18.260,28.913 18.500,28.698 C18.537,28.658 18.575,28.620 18.614,28.582 C18.829,28.338 18.960,28.016 18.960,27.663 C18.960,26.900 18.351,26.280 17.603,26.280 C16.854,26.280 16.245,26.900 16.245,27.663 C16.245,28.425 16.854,29.046 17.603,29.046 ZM14.319,25.712 C15.067,25.712 15.676,25.092 15.676,24.329 C15.676,23.567 15.067,22.947 14.319,22.947 C13.570,22.947 12.961,23.567 12.961,24.329 C12.961,25.092 13.570,25.712 14.319,25.712 ZM20.405,11.505 C20.151,11.505 19.908,11.402 19.728,11.219 L18.254,9.718 L9.790,18.340 L12.782,21.388 C13.241,21.138 13.763,20.996 14.318,20.996 C16.123,20.996 17.591,22.492 17.591,24.330 C17.591,24.330 17.591,24.330 17.591,24.330 C17.595,24.330 17.599,24.330 17.603,24.330 C19.407,24.330 20.875,25.825 20.875,27.663 C20.875,27.664 20.875,27.666 20.875,27.667 C22.674,27.674 24.135,29.166 24.135,31.000 C24.135,31.564 23.996,32.096 23.752,32.562 L24.923,33.754 C25.110,33.945 25.359,34.050 25.623,34.050 C25.888,34.050 26.136,33.945 26.323,33.755 C26.510,33.564 26.613,33.311 26.613,33.042 C26.613,32.772 26.510,32.519 26.323,32.329 L25.318,31.305 C25.131,31.115 25.038,30.865 25.038,30.616 C25.038,30.366 25.131,30.117 25.318,29.926 C25.692,29.545 26.299,29.545 26.672,29.926 L27.639,30.911 C28.046,31.325 28.708,31.325 29.115,30.911 C29.316,30.706 29.425,30.434 29.421,30.144 C29.417,29.855 29.301,29.586 29.095,29.387 L27.010,27.376 C26.626,27.006 26.609,26.388 26.973,25.997 C27.336,25.606 27.942,25.589 28.326,25.960 L30.241,27.806 C30.496,28.052 30.830,28.181 31.180,28.168 C31.530,28.155 31.854,28.003 32.091,27.740 C32.563,27.216 32.546,26.412 32.052,25.910 L32.046,25.904 L32.046,25.904 L30.057,23.878 C29.684,23.497 29.684,22.879 30.057,22.499 C30.432,22.118 31.038,22.118 31.412,22.499 L33.400,24.525 C33.630,24.758 33.934,24.886 34.258,24.886 C34.582,24.886 34.887,24.758 35.116,24.525 C35.346,24.290 35.473,23.978 35.471,23.647 C35.470,23.315 35.342,23.004 35.110,22.771 L28.906,16.535 L25.397,16.496 L22.192,19.761 C21.614,20.350 20.846,20.674 20.028,20.674 C19.211,20.674 18.443,20.350 17.865,19.761 C17.287,19.173 16.969,18.390 16.969,17.558 C16.969,16.725 17.287,15.943 17.865,15.354 L21.644,11.505 L20.405,11.505 ZM30.939,9.920 L29.663,11.219 C29.483,11.402 29.240,11.505 28.986,11.505 L24.352,11.505 L19.219,16.733 C19.003,16.953 18.884,17.246 18.884,17.558 C18.884,17.869 19.003,18.162 19.219,18.382 C19.436,18.602 19.723,18.723 20.028,18.723 C20.334,18.723 20.621,18.602 20.838,18.382 L24.328,14.827 C24.510,14.641 24.757,14.539 25.015,14.541 L29.182,14.588 C29.461,14.554 29.752,14.645 29.967,14.861 L29.975,14.870 C29.976,14.870 29.976,14.870 29.976,14.870 L35.808,20.732 L38.809,17.937 L30.939,9.920 ZM36.438,1.946 C35.911,1.946 35.483,1.510 35.483,0.973 C35.483,0.436 35.911,-0.000 36.438,-0.000 C36.966,-0.000 37.394,0.436 37.394,0.973 C37.394,1.510 36.966,1.946 36.438,1.946 ZM12.541,2.024 C12.014,2.024 11.586,1.589 11.586,1.051 C11.586,0.514 12.014,0.078 12.541,0.078 C13.069,0.078 13.497,0.514 13.497,1.051 C13.497,1.589 13.069,2.024 12.541,2.024 Z"/>
</svg>