<svg 
 xmlns="http://www.w3.org/2000/svg"
 xmlns:xlink="http://www.w3.org/1999/xlink"
 width="25px" height="26px">
<path fill-rule="evenodd"  fill="rgb(46, 68, 139)"
 d="M2.681,16.661 C2.959,16.661 3.185,16.889 3.185,17.169 C3.185,17.450 2.959,17.677 2.681,17.677 C2.403,17.677 2.178,17.450 2.178,17.169 C2.178,16.889 2.403,16.661 2.681,16.661 ZM21.342,17.169 C21.342,16.889 21.567,16.661 21.845,16.661 C22.123,16.661 22.349,16.889 22.349,17.169 C22.349,17.450 22.123,17.677 21.845,17.677 C21.567,17.677 21.342,17.450 21.342,17.169 ZM24.496,26.000 L0.503,26.000 C0.225,26.000 0.000,25.773 0.000,25.492 C0.000,25.212 0.225,24.984 0.503,24.984 L4.498,24.984 L4.498,12.510 C4.498,12.229 4.723,12.002 5.001,12.002 C5.279,12.002 5.505,12.229 5.505,12.510 L5.505,24.984 L6.742,24.984 L6.742,19.432 C6.742,19.152 6.968,18.924 7.246,18.924 C7.524,18.924 7.749,19.152 7.749,19.432 L7.749,24.984 L9.121,24.984 L9.121,18.269 C7.656,18.182 6.490,16.983 6.490,15.520 L6.490,10.598 C6.490,9.817 6.654,9.051 6.968,8.344 C4.852,8.519 3.185,10.252 3.185,12.359 L3.185,15.239 C3.185,15.520 2.960,15.747 2.681,15.747 C2.403,15.747 2.178,15.520 2.178,15.239 L2.178,12.359 C2.178,10.231 3.528,8.406 5.431,7.666 C4.871,7.172 4.516,6.448 4.516,5.641 C4.516,4.159 5.711,2.954 7.180,2.954 C7.624,2.954 8.064,3.066 8.451,3.279 C8.696,3.413 8.786,3.721 8.653,3.968 C8.520,4.214 8.215,4.305 7.970,4.171 C7.730,4.039 7.457,3.970 7.180,3.970 C6.267,3.970 5.523,4.719 5.523,5.641 C5.523,6.563 6.267,7.313 7.180,7.313 C7.190,7.313 7.199,7.314 7.208,7.314 C7.245,7.313 7.283,7.313 7.321,7.313 C7.400,7.313 7.480,7.315 7.559,7.318 C8.239,6.382 9.174,5.685 10.242,5.297 C9.572,4.750 9.142,3.915 9.142,2.980 C9.142,1.337 10.467,-0.000 12.096,-0.000 C13.725,-0.000 15.050,1.337 15.050,2.980 C15.050,3.871 14.659,4.672 14.042,5.219 C15.205,5.589 16.226,6.317 16.953,7.321 C16.980,7.320 17.007,7.319 17.034,7.318 C17.055,7.315 17.076,7.313 17.098,7.313 C18.011,7.311 18.753,6.560 18.751,5.638 C18.749,4.716 18.006,3.969 17.091,3.970 C16.821,3.971 16.564,4.034 16.327,4.159 C16.081,4.289 15.776,4.193 15.647,3.945 C15.518,3.696 15.614,3.389 15.860,3.259 C16.236,3.061 16.661,2.955 17.088,2.954 C17.090,2.954 17.092,2.954 17.094,2.954 C18.560,2.954 19.755,4.156 19.758,5.636 C19.760,6.403 19.440,7.096 18.929,7.587 C19.651,7.831 20.314,8.234 20.872,8.777 C21.849,9.729 22.388,10.997 22.391,12.348 L22.400,15.237 C22.401,15.518 22.177,15.746 21.899,15.747 C21.898,15.747 21.897,15.747 21.897,15.747 C21.619,15.747 21.394,15.521 21.393,15.241 L21.384,12.350 C21.382,11.276 20.952,10.267 20.172,9.508 C19.460,8.815 18.535,8.406 17.541,8.339 C17.855,9.048 18.020,9.815 18.020,10.598 L18.020,15.520 C18.020,16.954 16.899,18.136 15.474,18.263 L15.474,24.984 L16.697,24.984 L16.684,19.434 C16.683,19.153 16.908,18.925 17.186,18.925 C17.187,18.925 17.187,18.925 17.187,18.925 C17.465,18.925 17.690,19.151 17.691,19.431 L17.704,24.984 L19.166,24.984 L19.140,12.506 C19.139,12.225 19.364,11.997 19.642,11.997 C19.642,11.997 19.643,11.997 19.643,11.997 C19.921,11.997 20.146,12.223 20.147,12.503 L20.173,24.984 L24.496,24.984 C24.774,24.984 25.000,25.212 25.000,25.492 C25.000,25.773 24.775,26.000 24.496,26.000 ZM14.043,2.980 C14.043,1.897 13.170,1.016 12.096,1.016 C11.023,1.016 10.149,1.897 10.149,2.980 C10.149,4.062 11.023,4.943 12.096,4.943 C13.170,4.943 14.043,4.062 14.043,2.980 ZM17.013,15.520 L17.013,10.598 C17.013,9.721 16.761,8.868 16.284,8.129 C15.406,6.770 13.900,5.959 12.255,5.959 C10.613,5.959 9.109,6.768 8.230,8.124 C7.751,8.863 7.497,9.719 7.497,10.598 L7.497,15.520 C7.497,16.423 8.212,17.168 9.121,17.251 L9.121,10.769 C9.121,10.489 9.347,10.261 9.625,10.261 C9.903,10.261 10.128,10.489 10.128,10.769 L10.128,24.984 L11.667,24.984 L11.667,17.918 C11.667,17.638 11.892,17.410 12.170,17.410 C12.448,17.410 12.674,17.638 12.674,17.918 L12.674,24.984 L14.467,24.984 L14.467,10.769 C14.467,10.489 14.693,10.261 14.971,10.261 C15.249,10.261 15.474,10.489 15.474,10.769 L15.474,17.241 C16.343,17.121 17.013,16.395 17.013,15.520 Z"/>
</svg>