<svg 
 xmlns="http://www.w3.org/2000/svg"
 xmlns:xlink="http://www.w3.org/1999/xlink"
 width="23px" height="26px">
<path fill-rule="evenodd"  fill="rgb(46, 68, 139)"
 d="M6.679,6.270 C6.679,5.990 6.906,5.762 7.186,5.762 C7.466,5.762 7.693,5.990 7.693,6.270 C7.693,6.551 7.466,6.778 7.186,6.778 C6.906,6.778 6.679,6.551 6.679,6.270 ZM9.636,6.270 C9.636,5.990 9.862,5.762 10.142,5.762 C10.422,5.762 10.649,5.990 10.649,6.270 C10.649,6.551 10.422,6.778 10.142,6.778 C9.862,6.778 9.636,6.551 9.636,6.270 ZM12.280,6.270 C12.280,5.990 12.507,5.762 12.787,5.762 C13.067,5.762 13.294,5.990 13.294,6.270 C13.294,6.551 13.067,6.778 12.787,6.778 C12.507,6.778 12.280,6.551 12.280,6.270 ZM15.175,6.270 C15.175,5.990 15.402,5.762 15.681,5.762 C15.961,5.762 16.188,5.990 16.188,6.270 C16.188,6.551 15.961,6.778 15.681,6.778 C15.402,6.778 15.175,6.551 15.175,6.270 ZM16.278,12.470 C16.278,12.189 16.505,11.962 16.785,11.962 C17.065,11.962 17.292,12.189 17.292,12.470 C17.292,12.750 17.065,12.978 16.785,12.978 C16.505,12.978 16.278,12.750 16.278,12.470 ZM20.887,12.999 L18.951,12.999 C18.671,12.999 18.444,12.772 18.444,12.491 C18.444,12.211 18.671,11.983 18.951,11.983 L20.887,11.983 C21.493,11.983 21.986,11.489 21.986,10.882 L21.986,2.118 C21.986,1.510 21.493,1.016 20.887,1.016 L2.113,1.016 C1.507,1.016 1.014,1.510 1.014,2.118 L1.014,10.882 C1.014,11.489 1.507,11.984 2.113,11.984 L3.136,11.984 C3.296,11.984 3.446,12.059 3.542,12.188 L5.771,15.185 C5.824,15.256 5.890,15.253 5.936,15.238 C5.983,15.223 6.038,15.186 6.039,15.098 L6.075,12.484 C6.079,12.207 6.305,11.984 6.582,11.984 L10.080,11.984 C10.641,11.416 11.418,11.063 12.276,11.063 C13.980,11.063 15.366,12.453 15.366,14.161 C15.366,15.105 14.942,15.951 14.276,16.520 C16.721,17.279 18.498,19.513 18.498,22.144 L18.498,24.984 L20.110,24.984 C20.390,24.984 20.617,25.211 20.617,25.492 C20.617,25.772 20.390,26.000 20.110,26.000 L3.354,26.000 C3.074,26.000 2.848,25.772 2.848,25.492 C2.848,25.211 3.074,24.984 3.354,24.984 L6.389,24.984 L6.389,22.144 C6.389,19.599 8.051,17.425 10.372,16.599 C9.650,16.032 9.185,15.150 9.185,14.161 C9.185,13.751 9.266,13.359 9.412,12.999 L7.082,12.999 L7.053,15.112 C7.046,15.619 6.730,16.048 6.249,16.204 C6.127,16.244 6.003,16.263 5.882,16.263 C5.524,16.263 5.184,16.096 4.958,15.792 L2.881,12.999 L2.113,12.999 C0.948,12.999 -0.000,12.049 -0.000,10.882 L-0.000,2.118 C-0.000,0.950 0.948,-0.000 2.113,-0.000 L20.887,-0.000 C22.052,-0.000 23.000,0.950 23.000,2.118 L23.000,10.882 C23.000,12.049 22.052,12.999 20.887,12.999 ZM7.403,22.144 L7.403,24.984 L9.163,24.984 L9.163,22.324 C9.163,22.043 9.390,21.815 9.670,21.815 C9.950,21.815 10.177,22.043 10.177,22.324 L10.177,24.984 L14.800,24.984 L14.800,22.324 C14.800,22.043 15.027,21.815 15.307,21.815 C15.587,21.815 15.814,22.043 15.814,22.324 L15.814,24.984 L17.484,24.984 L17.484,22.144 C17.484,19.451 15.223,17.259 12.444,17.259 C9.664,17.259 7.403,19.451 7.403,22.144 ZM12.276,16.243 C13.421,16.243 14.352,15.309 14.352,14.161 C14.352,13.013 13.421,12.080 12.276,12.080 C11.131,12.080 10.199,13.013 10.199,14.161 C10.199,15.309 11.131,16.243 12.276,16.243 ZM22.284,24.984 C22.564,24.984 22.791,25.211 22.791,25.492 C22.791,25.772 22.564,26.000 22.284,26.000 C22.004,26.000 21.778,25.772 21.778,25.492 C21.778,25.211 22.004,24.984 22.284,24.984 Z"/>
</svg>