<svg 
 xmlns="http://www.w3.org/2000/svg"
 xmlns:xlink="http://www.w3.org/1999/xlink"
 width="41px" height="40px">
<path fill-rule="evenodd"  fill="rgb(46, 68, 139)"
 d="M12.851,18.428 C12.851,18.871 12.492,19.231 12.050,19.231 C11.608,19.231 11.249,18.871 11.249,18.428 C11.249,17.984 11.608,17.624 12.050,17.624 C12.492,17.624 12.851,17.984 12.851,18.428 ZM4.466,4.981 L21.661,4.981 C22.104,4.981 22.462,5.341 22.462,5.784 C22.462,6.228 22.104,6.588 21.661,6.588 L4.466,6.588 C4.023,6.588 3.665,6.228 3.665,5.784 C3.665,5.341 4.023,4.981 4.466,4.981 ZM8.419,32.593 C8.862,32.593 9.220,32.953 9.220,33.397 C9.220,33.840 8.862,34.200 8.419,34.200 C7.977,34.200 7.619,33.840 7.619,33.397 C7.619,32.953 7.977,32.593 8.419,32.593 ZM8.419,17.624 C8.862,17.624 9.220,17.984 9.220,18.428 C9.220,18.871 8.862,19.231 8.419,19.231 C7.977,19.231 7.619,18.871 7.619,18.428 C7.619,17.984 7.977,17.624 8.419,17.624 ZM7.169,8.656 C9.050,8.656 10.581,10.192 10.581,12.080 C10.581,13.968 9.050,15.504 7.169,15.504 C5.287,15.504 3.756,13.968 3.756,12.080 C3.756,10.192 5.287,8.656 7.169,8.656 ZM7.169,13.897 C8.167,13.897 8.980,13.082 8.980,12.080 C8.980,11.078 8.167,10.263 7.169,10.263 C6.170,10.263 5.357,11.078 5.357,12.080 C5.357,13.082 6.170,13.897 7.169,13.897 ZM4.886,32.593 C5.329,32.593 5.687,32.953 5.687,33.397 C5.687,33.840 5.329,34.200 4.886,34.200 C4.444,34.200 4.086,33.840 4.086,33.397 C4.086,32.953 4.444,32.593 4.886,32.593 ZM4.886,17.624 C5.329,17.624 5.687,17.984 5.687,18.428 C5.687,18.871 5.329,19.231 4.886,19.231 C4.444,19.231 4.086,18.871 4.086,18.428 C4.086,17.984 4.444,17.624 4.886,17.624 ZM25.038,17.973 C25.038,17.529 25.396,17.169 25.839,17.169 C26.281,17.169 26.640,17.529 26.640,17.973 C26.640,18.417 26.281,18.776 25.839,18.776 C25.396,18.776 25.038,18.417 25.038,17.973 ZM40.199,25.927 L36.505,25.927 L36.505,33.703 C36.505,34.147 36.147,34.507 35.704,34.507 L26.639,34.507 L26.639,39.196 C26.639,39.640 26.281,40.000 25.839,40.000 L0.801,40.000 C0.358,40.000 -0.000,39.640 -0.000,39.196 L-0.000,0.803 C-0.000,0.360 0.358,0.000 0.801,0.000 L25.839,0.000 C26.281,0.000 26.639,0.360 26.639,0.803 L26.639,14.701 C26.639,15.144 26.281,15.504 25.839,15.504 C25.396,15.504 25.038,15.144 25.038,14.701 L25.038,1.607 L1.602,1.607 L1.602,38.393 L25.038,38.393 L25.038,34.507 L14.469,34.507 C14.026,34.507 13.668,34.147 13.668,33.703 L13.668,21.255 C13.668,20.811 14.026,20.451 14.469,20.451 L29.174,20.451 L29.174,11.029 C29.174,10.586 29.532,10.226 29.975,10.226 L40.199,10.226 C40.641,10.226 41.000,10.585 41.000,11.029 L41.000,25.123 C41.000,25.567 40.641,25.927 40.199,25.927 ZM15.269,32.900 L34.904,32.900 L34.904,22.715 L25.487,28.175 C25.363,28.247 25.225,28.282 25.087,28.282 C24.948,28.282 24.810,28.247 24.686,28.175 L15.269,22.715 L15.269,32.900 ZM17.338,22.058 L25.087,26.551 L32.835,22.058 L17.338,22.058 ZM39.398,11.833 L30.775,11.833 L30.775,20.451 L35.705,20.451 C36.147,20.451 36.505,20.811 36.505,21.255 L36.505,24.320 L39.398,24.320 L39.398,11.833 ZM36.054,14.700 C36.054,14.257 36.413,13.897 36.855,13.897 C37.297,13.897 37.656,14.257 37.656,14.700 C37.656,15.144 37.297,15.504 36.855,15.504 C36.413,15.504 36.054,15.144 36.054,14.700 ZM33.322,15.504 C32.880,15.504 32.521,15.144 32.521,14.700 C32.521,14.257 32.880,13.897 33.322,13.897 C33.764,13.897 34.123,14.257 34.123,14.700 C34.123,15.144 33.764,15.504 33.322,15.504 ZM40.199,7.665 L29.975,7.665 C29.532,7.665 29.174,7.305 29.174,6.861 L29.174,0.803 C29.174,0.360 29.532,0.000 29.975,0.000 L40.199,0.000 C40.641,0.000 41.000,0.360 41.000,0.803 L41.000,6.861 C41.000,7.305 40.641,7.665 40.199,7.665 ZM39.398,1.607 L30.775,1.607 L30.775,6.058 L39.398,6.058 L39.398,1.607 ZM35.087,3.029 C35.529,3.029 35.888,3.389 35.888,3.832 C35.888,4.276 35.529,4.636 35.087,4.636 C34.645,4.636 34.286,4.276 34.286,3.832 C34.286,3.389 34.645,3.029 35.087,3.029 Z"/>
</svg>