<svg 
 xmlns="http://www.w3.org/2000/svg"
 xmlns:xlink="http://www.w3.org/1999/xlink"
 width="18px" height="18px">
<path fill-rule="evenodd"  fill="rgb(144, 152, 177)"
 d="M16.197,0.003 L1.802,0.003 C0.813,0.003 0.003,0.813 0.003,1.803 L0.003,16.197 C0.003,17.187 0.813,17.996 1.802,17.996 L16.197,17.996 C17.186,17.996 17.996,17.187 17.996,16.197 L17.996,1.803 C17.996,0.813 17.186,0.003 16.197,0.003 ZM14.128,6.571 C14.038,10.709 11.429,13.588 7.470,13.768 C5.851,13.858 4.681,13.318 3.602,12.688 C4.771,12.868 6.301,12.418 7.110,11.699 C5.941,11.609 5.221,10.979 4.861,9.989 C5.221,10.080 5.581,9.989 5.851,9.989 C4.771,9.630 4.052,9.000 3.962,7.560 C4.232,7.740 4.591,7.830 4.951,7.830 C4.142,7.381 3.602,5.671 4.232,4.592 C5.401,5.851 6.840,6.931 9.180,7.111 C8.550,4.592 11.968,3.242 13.318,4.951 C13.948,4.862 14.397,4.592 14.847,4.412 C14.667,5.041 14.307,5.401 13.858,5.761 C14.307,5.671 14.757,5.581 15.117,5.401 C15.027,5.851 14.577,6.211 14.128,6.571 Z"/>
</svg>