<svg 
 xmlns="http://www.w3.org/2000/svg"
 xmlns:xlink="http://www.w3.org/1999/xlink"
 width="26px" height="26px">
<path fill-rule="evenodd"  fill="rgb(255, 255, 255)"
 d="M22.996,0.505 L3.004,0.505 C1.630,0.505 0.505,1.629 0.505,3.004 L0.505,22.996 C0.505,24.371 1.630,25.495 3.004,25.495 L22.996,25.495 C24.371,25.495 25.495,24.371 25.495,22.996 L25.495,3.004 C25.495,1.629 24.371,0.505 22.996,0.505 ZM20.122,9.626 C19.997,15.374 16.374,19.372 10.876,19.622 C8.627,19.747 7.002,18.997 5.503,18.123 C7.127,18.373 9.252,17.748 10.376,16.748 C8.752,16.623 7.752,15.749 7.252,14.374 C7.752,14.499 8.252,14.374 8.627,14.374 C7.127,13.875 6.128,13.000 6.003,11.001 C6.378,11.251 6.877,11.376 7.377,11.376 C6.253,10.751 5.503,8.377 6.378,6.877 C8.002,8.627 10.001,10.126 13.250,10.376 C12.375,6.877 17.123,5.003 18.998,7.377 C19.872,7.252 20.497,6.877 21.122,6.627 C20.872,7.502 20.372,8.002 19.747,8.502 C20.372,8.377 20.997,8.252 21.497,8.002 C21.372,8.627 20.747,9.127 20.122,9.626 Z"/>
</svg>